<svg width="1381" height="1283" viewBox="0 0 1381 1283" fill="none" xmlns="http://www.w3.org/2000/svg">
<g clip-path="url(#clip0_207_7)">
<rect width="1380" height="1283" transform="translate(0.864746)" fill="white"/>
<mask id="mask0_207_7" style="mask-type:luminance" maskUnits="userSpaceOnUse" x="1" y="0" width="2305" height="1210">
<path d="M1 0H2306V1210H1V0Z" fill="white"/>
</mask>
<g mask="url(#mask0_207_7)">
<path d="M366.579 619.6V591.981L386.221 590.198C386.893 588.226 387.696 586.319 388.607 584.469L375.97 569.312L395.501 549.783L410.66 562.418C412.508 561.508 414.417 560.705 416.39 560.033L418.172 540.393H445.794L447.576 560.033C449.549 560.705 451.456 561.508 453.306 562.418L468.466 549.783L487.998 569.312L475.361 584.469C476.272 586.317 477.075 588.226 477.747 590.198L497.389 591.981V619.6L477.747 621.382C477.075 623.354 476.274 625.262 475.361 627.111L487.998 642.269L468.466 661.8L453.306 649.164C451.46 650.072 449.545 650.858 447.578 651.534L445.794 671.19H418.172L416.388 651.534C414.423 650.856 412.506 650.072 410.66 649.164L395.501 661.8L375.97 642.269L388.607 627.111C387.696 625.264 386.893 623.354 386.221 621.382L366.579 619.6ZM431.985 637.73C449.628 637.73 463.929 623.429 463.929 605.79C463.929 588.149 449.626 573.848 431.985 573.848C414.342 573.848 400.042 588.149 400.042 605.79C400.04 623.431 414.342 637.73 431.985 637.73Z" stroke="#FFAA2E" stroke-width="2.6842" stroke-miterlimit="10"/>
</g>
<mask id="mask1_207_7" style="mask-type:luminance" maskUnits="userSpaceOnUse" x="1" y="0" width="2305" height="1210">
<path d="M1 0H2306V1210H1V0Z" fill="white"/>
</mask>
<g mask="url(#mask1_207_7)">
<path d="M1022.7 1.23182C1022.7 0.434756 1022.8 -0.339259 1022.82 -1.13056L1010.25 -5.81115L1016.21 -31.9222L1029.52 -30.6872C1030.17 -32.1392 1030.86 -33.5682 1031.58 -34.9741L1022.32 -44.6137L1039.02 -65.5544L1050.48 -58.6632C1051.69 -59.6869 1052.95 -60.6357 1054.22 -61.5845L1050.03 -74.3356L1074.17 -85.9573L1081.53 -74.7447C1083.06 -75.1422 1084.58 -75.5552 1086.15 -75.8605L1087.9 -89.0918H1114.69L1116.44 -75.8605C1118.01 -75.5552 1119.53 -75.1422 1121.06 -74.7447L1128.42 -85.9573L1152.56 -74.3356L1148.37 -61.5845C1149.64 -60.6357 1150.9 -59.685 1152.11 -58.6632L1163.57 -65.5544L1180.27 -44.6137L1171.01 -34.9741C1171.74 -33.5701 1172.42 -32.1392 1173.07 -30.6872L1186.38 -31.9222L1192.35 -5.81115L1179.77 -1.13056C1179.79 -0.339259 1179.89 0.434756 1179.89 1.23182C1179.89 2.02888 1179.79 2.8029 1179.77 3.5942L1192.35 8.27479L1186.38 34.3858L1173.07 33.1509C1172.42 34.6029 1171.74 36.0318 1171.01 37.4377L1180.27 47.0774L1163.57 68.0181L1152.11 61.1268C1150.9 62.1486 1149.64 63.0993 1148.37 64.0481L1152.56 76.7992L1128.42 88.421L1121.06 77.2083C1119.53 77.6059 1118.01 78.0188 1116.44 78.3242L1114.69 91.5554H1087.9L1086.15 78.3242C1084.58 78.0188 1083.06 77.6059 1081.53 77.2083L1074.17 88.421L1050.03 76.7992L1054.22 64.0481C1052.95 63.0993 1051.69 62.1486 1050.48 61.1268L1039.02 68.0181L1022.32 47.0774L1031.58 37.4377C1030.86 36.0337 1030.17 34.6029 1029.52 33.1509L1016.21 34.3858L1010.25 8.27479L1022.82 3.5942C1022.8 2.8029 1022.7 2.0308 1022.7 1.23182ZM1101.29 61.8816C1134.79 61.8816 1161.95 34.7277 1161.95 1.23182C1161.95 -32.2641 1134.79 -59.418 1101.29 -59.418C1067.79 -59.418 1040.64 -32.2641 1040.64 1.23182C1040.64 34.7277 1067.79 61.8816 1101.29 61.8816Z" stroke="#FFAA2E" stroke-width="2.6842" stroke-miterlimit="10"/>
</g>
<mask id="mask2_207_7" style="mask-type:luminance" maskUnits="userSpaceOnUse" x="1" y="0" width="2305" height="1210">
<path d="M1 0H2306V1210H1V0Z" fill="white"/>
</mask>
<g mask="url(#mask2_207_7)">
<path d="M321.585 390.185C321.585 389.63 321.658 389.092 321.668 388.539L295.854 377.213L309.228 336.056L336.746 342.059C337.376 341.159 338.054 340.298 338.719 339.422L324.48 315.065L359.495 289.628L378.244 310.676C379.289 310.313 380.319 309.918 381.383 309.595L384.172 281.611H427.452L430.243 309.595C431.307 309.918 432.335 310.313 433.382 310.676L452.131 289.628L487.146 315.065L472.907 339.422C473.569 340.296 474.249 341.159 474.877 342.059L502.395 336.056L515.77 377.213L489.956 388.539C489.968 389.092 490.039 389.63 490.039 390.185C490.039 390.74 489.968 391.278 489.956 391.831L515.77 403.157L502.395 444.314L474.877 438.31C474.247 439.211 473.567 440.071 472.907 440.947L487.146 465.305L452.131 490.742L433.382 469.693C432.337 470.056 431.307 470.452 430.243 470.775L427.452 498.758H384.172L381.383 470.775C380.319 470.452 379.291 470.056 378.244 469.693L359.495 490.742L324.48 465.305L338.719 440.947C338.056 440.073 337.376 439.211 336.748 438.31L309.231 444.314L295.856 403.157L321.67 391.831C321.656 391.276 321.585 390.74 321.585 390.185ZM405.812 454.008C441.065 454.008 469.643 425.432 469.643 390.185C469.643 354.935 441.065 326.36 405.812 326.36C370.559 326.36 341.981 354.935 341.981 390.185C341.983 425.432 370.559 454.008 405.812 454.008Z" stroke="#27569B" stroke-width="2.6842" stroke-miterlimit="10"/>
</g>
<mask id="mask3_207_7" style="mask-type:luminance" maskUnits="userSpaceOnUse" x="1" y="0" width="2305" height="1210">
<path d="M1 0H2306V1210H1V0Z" fill="white"/>
</mask>
<g mask="url(#mask3_207_7)">
<path d="M-98.0747 757.184C-98.0747 753.139 -97.7635 749.175 -97.2948 745.257L-121.419 735.068L-110.916 702.749L-85.4413 708.678C-81.5363 701.683 -76.7746 695.255 -71.3617 689.428L-84.9151 666.966L-57.4202 646.991L-40.2614 666.801C-33.1082 663.478 -25.5344 660.924 -17.5821 659.37L-15.3501 633.322H18.6352L20.8672 659.37C28.8194 660.924 36.3914 663.478 43.5446 666.801L60.7033 646.991L88.1981 666.966L74.6465 689.428C80.0575 695.255 84.8213 701.683 88.7264 708.678L114.2 702.749L124.702 735.068L100.578 745.257C101.045 749.175 101.358 753.139 101.358 757.184C101.358 761.227 101.046 765.193 100.578 769.111L124.702 779.3L114.2 811.619L88.7282 805.69C84.8232 812.685 80.0596 819.113 74.6486 824.94L88.2 847.402L60.7052 867.375L43.5465 847.565C36.3933 850.888 28.8194 853.442 20.869 854.996L18.6371 881.044H-15.3482L-17.5802 854.996C-25.5325 853.442 -33.1044 850.888 -40.2595 847.565L-57.4183 867.375L-84.9133 847.402L-71.3598 824.94C-76.7727 819.113 -81.5344 812.685 -85.4394 805.69L-110.912 811.619L-121.415 779.3L-97.2911 769.111C-97.7636 765.193 -98.0747 761.229 -98.0747 757.184ZM1.6396 831.528C42.7032 831.528 75.9912 798.243 75.9912 757.184C75.9912 716.125 42.7032 682.84 1.6396 682.84C-39.424 682.84 -72.712 716.125 -72.712 757.184C-72.712 798.243 -39.424 831.528 1.6396 831.528Z" stroke="#FFAA2E" stroke-width="2.6842" stroke-miterlimit="10"/>
</g>
<mask id="mask4_207_7" style="mask-type:luminance" maskUnits="userSpaceOnUse" x="1" y="0" width="2305" height="1210">
<path d="M1 0H2306V1210H1V0Z" fill="white"/>
</mask>
<g mask="url(#mask4_207_7)">
<path d="M563.958 416.613L551.676 414.817V402.406" stroke="#FFAA2E" stroke-width="2.6842" stroke-miterlimit="10"/>
<path d="M551.676 384.799V372.388L563.958 370.592" stroke="#FFAA2E" stroke-width="2.6842" stroke-miterlimit="10"/>
<path d="M567.123 370.129L579.405 368.333C580.74 361.079 582.625 354.022 585.037 347.212L575.298 339.516" stroke="#FFAA2E" stroke-width="2.6842" stroke-miterlimit="10"/>
<path d="M572.811 337.549L563.074 329.853L569.281 319.105" stroke="#FFAA2E" stroke-width="2.6842" stroke-miterlimit="10"/>
<path d="M578.086 303.855L584.292 293.107L595.827 297.692" stroke="#FFAA2E" stroke-width="2.6842" stroke-miterlimit="10"/>
<path d="M598.817 298.881L610.352 303.466C615.089 297.925 620.25 292.762 625.793 288.028L621.208 276.494" stroke="#FFAA2E" stroke-width="2.6842" stroke-miterlimit="10"/>
<path d="M620.017 273.501L615.432 261.969L626.181 255.764" stroke="#FFAA2E" stroke-width="2.6842" stroke-miterlimit="10"/>
<path d="M641.433 246.959L652.182 240.754L659.879 250.49" stroke="#FFAA2E" stroke-width="2.6842" stroke-miterlimit="10"/>
<path d="M661.844 252.979L669.54 262.717C676.354 260.302 683.411 258.418 690.664 257.085L692.46 244.805" stroke="#FFAA2E" stroke-width="2.6842" stroke-miterlimit="10"/>
<path d="M692.925 241.638L694.721 229.357H707.133" stroke="#FFAA2E" stroke-width="2.6842" stroke-miterlimit="10"/>
<path d="M724.743 229.357H737.156L738.952 241.638" stroke="#FFAA2E" stroke-width="2.6842" stroke-miterlimit="10"/>
<path d="M739.415 244.803L741.211 257.083C748.464 258.418 755.523 260.3 762.334 262.715L770.031 252.977" stroke="#FFAA2E" stroke-width="2.6842" stroke-miterlimit="10"/>
<path d="M771.998 250.49L779.694 240.754L790.443 246.959" stroke="#FFAA2E" stroke-width="2.6842" stroke-miterlimit="10"/>
<path d="M805.695 255.764L816.444 261.969L811.859 273.501" stroke="#FFAA2E" stroke-width="2.6842" stroke-miterlimit="10"/>
<path d="M810.67 276.492L806.085 288.026C811.626 292.762 816.79 297.923 821.524 303.464L833.059 298.879" stroke="#FFAA2E" stroke-width="2.6842" stroke-miterlimit="10"/>
<path d="M836.05 297.692L847.584 293.107L853.791 303.855" stroke="#FFAA2E" stroke-width="2.6842" stroke-miterlimit="10"/>
<path d="M862.596 319.105L868.802 329.853L859.063 337.549" stroke="#FFAA2E" stroke-width="2.6842" stroke-miterlimit="10"/>
<path d="M856.576 339.516L846.837 347.212C849.252 354.022 851.136 361.081 852.469 368.333L864.751 370.129" stroke="#FFAA2E" stroke-width="2.6842" stroke-miterlimit="10"/>
<path d="M867.918 370.592L880.2 372.388V384.799" stroke="#FFAA2E" stroke-width="2.6842" stroke-miterlimit="10"/>
<path d="M880.2 402.406V414.817L867.918 416.613" stroke="#FFAA2E" stroke-width="2.6842" stroke-miterlimit="10"/>
<path d="M864.751 417.076L852.469 418.872C851.134 426.124 849.252 433.183 846.837 439.993L856.576 447.689" stroke="#FFAA2E" stroke-width="2.6842" stroke-miterlimit="10"/>
<path d="M859.063 449.656L868.802 457.352L862.596 468.1" stroke="#FFAA2E" stroke-width="2.6842" stroke-miterlimit="10"/>
<path d="M853.791 483.35L847.584 494.097L836.05 489.513" stroke="#FFAA2E" stroke-width="2.6842" stroke-miterlimit="10"/>
<path d="M833.059 488.325L821.524 483.74C816.788 489.281 811.626 494.444 806.085 499.18L810.67 510.714" stroke="#FFAA2E" stroke-width="2.6842" stroke-miterlimit="10"/>
<path d="M811.859 513.701L816.444 525.235L805.695 531.44" stroke="#FFAA2E" stroke-width="2.6842" stroke-miterlimit="10"/>
<path d="M790.443 540.245L779.694 546.45L771.998 536.713" stroke="#FFAA2E" stroke-width="2.6842" stroke-miterlimit="10"/>
<path d="M770.031 534.226L762.334 524.488C755.523 526.903 748.464 528.787 741.211 530.12L739.415 542.4" stroke="#FFAA2E" stroke-width="2.6842" stroke-miterlimit="10"/>
<path d="M738.952 545.566L737.156 557.847H724.743" stroke="#FFAA2E" stroke-width="2.6842" stroke-miterlimit="10"/>
<path d="M707.133 557.847H694.721L692.925 545.566" stroke="#FFAA2E" stroke-width="2.6842" stroke-miterlimit="10"/>
<path d="M692.462 542.4L690.666 530.12C683.413 528.785 676.354 526.903 669.542 524.488L661.846 534.226" stroke="#FFAA2E" stroke-width="2.6842" stroke-miterlimit="10"/>
<path d="M659.879 536.713L652.182 546.45L641.433 540.245" stroke="#FFAA2E" stroke-width="2.6842" stroke-miterlimit="10"/>
<path d="M626.181 531.44L615.432 525.235L620.017 513.701" stroke="#FFAA2E" stroke-width="2.6842" stroke-miterlimit="10"/>
<path d="M621.206 510.712L625.792 499.178C620.25 494.442 615.087 489.281 610.35 483.738L598.815 488.323" stroke="#FFAA2E" stroke-width="2.6842" stroke-miterlimit="10"/>
<path d="M595.824 489.513L584.292 494.097L578.086 483.35" stroke="#FFAA2E" stroke-width="2.6842" stroke-miterlimit="10"/>
<path d="M569.281 468.1L563.074 457.352L572.811 449.656" stroke="#FFAA2E" stroke-width="2.6842" stroke-miterlimit="10"/>
<path d="M575.3 447.689L585.039 439.993C582.625 433.183 580.742 426.124 579.407 418.872L567.125 417.076" stroke="#FFAA2E" stroke-width="2.6842" stroke-miterlimit="10"/>
<path d="M683.282 503.309C622.694 485.268 588.204 421.532 606.246 360.95C624.288 300.369 688.031 265.882 748.619 283.923C809.207 301.963 843.697 365.699 825.655 426.281C807.613 486.863 743.87 521.35 683.282 503.309Z" stroke="#FFAA2E" stroke-width="2.6842" stroke-miterlimit="10" stroke-dasharray="13.37 13.37"/>
<path d="M624.249 405.442V381.759L639.727 379.496C640.472 375.448 641.523 371.508 642.872 367.706L630.611 358.018L642.455 337.505L656.999 343.287C659.642 340.194 662.524 337.312 665.618 334.669L659.836 320.126L680.349 308.283L690.038 320.542C693.841 319.194 697.78 318.144 701.83 317.398L704.094 301.922H727.78L730.043 317.398C734.092 318.142 738.032 319.194 741.833 320.542L751.524 308.283L772.036 320.126L766.254 334.669C769.347 337.312 772.228 340.194 774.873 343.287L789.42 337.505L801.263 358.018L789.003 367.706C790.351 371.508 791.402 375.448 792.147 379.496L807.625 381.759V405.442L792.147 407.707C791.402 411.755 790.351 415.695 789.003 419.497L801.263 429.185L789.42 449.697L774.873 443.916C772.228 447.009 769.347 449.891 766.254 452.534L772.036 467.079L751.524 478.922L741.833 466.662C738.03 468.011 734.092 469.061 730.043 469.806L727.78 485.283H704.094L701.83 469.806C697.78 469.061 693.841 468.011 690.038 466.662L680.349 478.922L659.836 467.079L665.618 452.534C662.524 449.891 659.642 447.01 656.999 443.916L642.455 449.697L630.611 429.185L642.872 419.497C641.523 415.695 640.472 411.755 639.727 407.707L624.249 405.442ZM715.938 457.488C751.226 457.488 779.831 428.884 779.831 393.601C779.831 358.317 751.226 329.715 715.938 329.715C680.652 329.715 652.045 358.317 652.045 393.601C652.044 428.884 680.651 457.488 715.938 457.488Z" stroke="#27569B" stroke-width="2.6842" stroke-miterlimit="10"/>
</g>
<mask id="mask5_207_7" style="mask-type:luminance" maskUnits="userSpaceOnUse" x="1" y="0" width="2305" height="1210">
<path d="M1 0H2306V1210H1V0Z" fill="white"/>
</mask>
<g mask="url(#mask5_207_7)">
<path d="M169.952 -35.2871C239.375 -35.2871 295.855 21.1872 295.855 90.6028C295.855 160.018 239.377 216.493 169.952 216.493C100.53 216.493 44.0495 160.018 44.0495 90.6028C44.0495 21.1872 100.53 -35.2871 169.952 -35.2871ZM153.337 4.38552V-20.6999C124.513 -16.4111 99.233 -1.25346 81.8495 20.5611L103.582 33.1067C109.525 36.537 115.149 40.4819 120.359 44.8725L142.779 63.7677C147.529 58.9584 153.556 55.4418 160.3 53.6825L155.139 24.7942C153.942 18.0893 153.337 11.2479 153.337 4.38552ZM186.566 -18.906V4.45467C186.566 11.2748 185.963 18.0816 184.764 24.7961L179.605 53.6844C186.347 55.4418 192.374 58.9604 197.125 63.7696L219.485 44.9244C224.737 40.4973 230.37 36.5446 236.321 33.1105L258.055 20.5649C241.031 -0.800193 216.433 -15.7792 188.346 -20.4176C187.423 -20.5712 186.566 -19.8394 186.566 -18.906ZM282.629 90.6028C282.629 76.0214 279.753 62.1217 274.688 49.3207L252.932 61.8797C246.989 65.31 240.762 68.2082 234.354 70.5245L206.758 80.4984C207.641 83.7212 208.152 87.0977 208.152 90.6028C208.152 94.108 207.641 97.4845 206.758 100.707L234.354 110.681C240.762 112.996 246.989 115.896 252.932 119.326L274.688 131.887C279.753 119.084 282.629 105.184 282.629 90.6028ZM186.566 176.82V201.906C215.39 197.617 240.67 182.459 258.053 160.645L236.319 148.099C230.376 144.669 224.752 140.724 219.543 136.335L197.123 117.44C192.372 122.249 186.345 125.766 179.603 127.525L184.764 156.413C185.961 163.116 186.566 169.96 186.566 176.82ZM153.337 201.906V176.82C153.337 169.958 153.942 163.116 155.139 156.411L160.3 127.523C153.556 125.764 147.531 122.247 142.779 117.438L120.359 136.333C115.149 140.724 109.525 144.667 103.582 148.097L81.8495 160.645C99.233 182.459 124.513 197.617 153.337 201.906ZM86.9705 119.326C92.9135 115.896 99.1428 112.997 105.549 110.681L133.146 100.707C132.264 97.4845 131.751 94.1061 131.751 90.6028C131.751 87.0996 132.264 83.7212 133.146 80.4984L105.549 70.5245C99.1428 68.2082 92.9135 65.31 86.9705 61.8797L65.2134 49.3188C60.1481 62.1198 57.2726 76.0194 57.2726 90.6009C57.2726 105.182 60.1481 119.082 65.2134 131.885L86.9705 119.326Z" stroke="#FFAA2E" stroke-width="2.6842" stroke-miterlimit="10"/>
<path d="M169.953 281.61C275.285 281.61 360.979 195.925 360.979 90.6028C360.979 -14.719 275.285 -100.404 169.953 -100.404C64.6199 -100.404 -21.0723 -14.719 -21.0723 90.6028C-21.0742 195.925 64.6199 281.61 169.953 281.61ZM169.953 -53.8923C249.636 -53.8923 314.465 10.9292 314.465 90.6048C314.465 170.28 249.636 235.1 169.953 235.1C90.2687 235.1 25.4425 170.278 25.4425 90.6048C25.4406 10.9292 90.2687 -53.8923 169.953 -53.8923Z" stroke="#27569B" stroke-width="2.6842" stroke-miterlimit="10"/>
<path d="M169.953 110.707C158.849 110.707 149.847 101.706 149.847 90.6033C149.847 79.5005 158.849 70.5 169.953 70.5C181.057 70.5 190.058 79.5005 190.058 90.6033C190.058 101.706 181.057 110.707 169.953 110.707Z" stroke="#27569B" stroke-width="2.6842" stroke-miterlimit="10"/>
<path d="M169.953 100.323C164.584 100.323 160.231 95.9715 160.231 90.6031C160.231 85.2348 164.584 80.8828 169.953 80.8828C175.322 80.8828 179.674 85.2348 179.674 90.6031C179.674 95.9715 175.322 100.323 169.953 100.323Z" stroke="#27569B" stroke-width="2.6842" stroke-miterlimit="10"/>
</g>
<mask id="mask6_207_7" style="mask-type:luminance" maskUnits="userSpaceOnUse" x="1" y="0" width="2305" height="1210">
<path d="M1 0H2306V1210H1V0Z" fill="white"/>
</mask>
<g mask="url(#mask6_207_7)">
<path d="M158.366 818.158V678.021C138.351 667.909 128.386 644.337 135.96 622.582C141.169 607.624 153.409 597.124 167.688 593.48L153.092 635.408L200.413 651.879L215.01 609.952C223.94 621.673 227.015 637.503 221.807 652.461C216.45 667.847 203.644 678.474 188.84 681.816V818.158C203.471 824.162 213.784 838.532 213.784 855.326C213.784 877.515 195.795 895.504 173.604 895.504C151.413 895.504 133.422 877.515 133.422 855.326C133.422 838.532 143.735 824.162 158.366 818.158ZM173.602 881.752C188.291 881.752 200.198 869.846 200.198 855.159C200.198 840.472 188.291 828.566 173.602 828.566C158.914 828.566 147.006 840.472 147.006 855.159C147.006 869.846 158.914 881.752 173.602 881.752Z" stroke="#27569B" stroke-width="2.6842" stroke-miterlimit="10"/>
</g>
<mask id="mask7_207_7" style="mask-type:luminance" maskUnits="userSpaceOnUse" x="1" y="0" width="2305" height="1210">
<path d="M1 0H2306V1210H1V0Z" fill="white"/>
</mask>
<g mask="url(#mask7_207_7)">
<path d="M463.068 -19.8309V152.006C487.61 164.404 499.831 193.31 490.542 219.987C484.155 238.329 469.145 251.203 451.637 255.671L469.535 204.259L411.509 184.062L393.61 235.473C382.66 221.101 378.891 201.689 385.274 183.349C391.841 164.483 407.548 151.451 425.698 147.353V-19.8309C407.757 -27.1927 395.113 -44.8126 395.113 -65.4057C395.113 -92.6134 417.171 -114.672 444.382 -114.672C471.592 -114.672 493.651 -92.6153 493.651 -65.4057C493.653 -44.8145 481.008 -27.1927 463.068 -19.8309ZM444.384 -97.8125C426.372 -97.8125 411.77 -83.2119 411.77 -65.2021C411.77 -47.1923 426.37 -32.5935 444.384 -32.5935C462.395 -32.5935 476.998 -47.1923 476.998 -65.2021C476.998 -83.2119 462.395 -97.8125 444.384 -97.8125Z" stroke="#FFAA2E" stroke-width="2.6842" stroke-miterlimit="10"/>
</g>
<mask id="mask8_207_7" style="mask-type:luminance" maskUnits="userSpaceOnUse" x="1" y="0" width="2305" height="1210">
<path d="M1 0H2306V1210H1V0Z" fill="white"/>
</mask>
<g mask="url(#mask8_207_7)">
<path d="M10.1951 351.917C11.2958 350.656 13.2378 350.567 14.4748 351.697L14.9107 352.094C38.7252 326.016 72.9814 309.627 110.997 309.627C149.014 309.627 183.27 326.016 207.082 352.094L207.519 351.697C208.756 350.567 210.698 350.656 211.798 351.917C233.035 376.267 244.694 407.332 244.694 439.742C244.694 467.048 236.563 493.182 221.149 515.529C220.198 516.91 218.271 517.217 216.913 516.235L216.423 515.88C192.761 548.548 154.333 569.858 110.999 569.858C67.6645 569.858 29.2364 548.548 5.5717 515.88L5.08188 516.235C3.72385 517.219 1.79926 516.91 0.846527 515.529C-14.5682 493.182 -22.6992 467.048 -22.6992 439.742C-22.7011 407.333 -11.0435 376.267 10.1951 351.917ZM110.997 329.235C78.7074 329.235 49.7008 343.238 29.4764 365.387L30.1507 366.003C31.357 367.106 31.4377 368.953 30.3697 370.192C19.9876 382.212 12.5289 396.267 8.36643 411.34C18.7485 418.627 31.9178 421.456 44.749 418.333L79.7294 409.821C87.6144 401.585 98.6937 396.432 110.997 396.432C123.3 396.432 134.379 401.585 142.264 409.821L177.246 418.333C190.077 421.456 203.247 418.627 213.629 411.34C209.464 396.267 202.008 382.212 191.625 370.192C190.557 368.953 190.636 367.106 191.844 366.003L192.519 365.387C172.292 343.238 143.286 329.235 110.997 329.235ZM200.475 504.345L199.72 503.799C198.396 502.841 198.108 501.016 199.028 499.666C205.936 489.552 210.905 478.449 213.955 466.779C203.458 455.442 184.03 447.413 147.448 463.078C143.768 468.813 138.78 473.607 132.894 477.068C121.3 499.778 117.864 545.168 150.908 542.679C170.913 534.892 188.068 521.477 200.475 504.345ZM71.0817 542.677C104.128 545.166 100.689 499.776 89.0972 477.066C83.2118 473.607 78.2233 468.813 74.543 463.078C37.9627 447.413 18.5353 455.443 8.03793 466.781C11.0882 478.451 16.0576 489.552 22.9649 499.668C23.885 501.018 23.5986 502.845 22.2732 503.801L21.5185 504.349C33.9232 521.477 51.0781 534.892 71.0817 542.677Z" stroke="#FFAA2E" stroke-width="2.6842" stroke-miterlimit="10"/>
<path d="M110.997 468.279C95.2345 468.279 82.4568 455.502 82.4568 439.742C82.4568 423.981 95.2345 411.205 110.997 411.205C126.759 411.205 139.536 423.981 139.536 439.742C139.536 455.502 126.759 468.279 110.997 468.279Z" stroke="#27569B" stroke-width="2.6842" stroke-miterlimit="10"/>
<path d="M110.997 455.901C119.907 455.901 127.155 448.652 127.155 439.744C127.155 430.834 119.905 423.588 110.997 423.588C102.088 423.588 94.8366 430.836 94.8366 439.744C94.8366 448.652 102.086 455.901 110.997 455.901Z" stroke="#FFAA2E" stroke-width="2.6842" stroke-miterlimit="10"/>
</g>
<mask id="mask9_207_7" style="mask-type:luminance" maskUnits="userSpaceOnUse" x="1" y="0" width="2305" height="1210">
<path d="M1 0H2306V1210H1V0Z" fill="white"/>
</mask>
<g mask="url(#mask9_207_7)">
<path d="M930.656 31.5032H972.094C972.657 31.5032 973.114 31.0461 973.114 30.4815V17.5921C973.114 17.0274 972.657 16.5703 972.094 16.5703H930.656C930.091 16.5703 929.636 17.0274 929.636 17.5921V30.4834C929.636 31.0461 930.091 31.5032 930.656 31.5032Z" stroke="#FFAA2E" stroke-width="2.6842" stroke-miterlimit="10"/>
<path d="M825.339 112.711L890.83 49.9945C896.462 44.5995 903.961 41.5898 911.761 41.5898H971.32C975.197 41.5898 978.979 42.796 982.14 45.0393C987.079 48.5445 990.012 54.2238 990.012 60.2795V82.1018C990.012 85.0308 988.848 87.8387 986.777 89.9092L984.676 92.0104C983.554 93.132 982.924 94.6531 982.924 96.2377V100.104C984.726 100.459 986.086 102.046 986.086 103.953V109.557C986.086 111.464 984.726 113.051 982.924 113.406V115.959C984.726 116.312 986.086 117.901 986.086 119.808V125.412C986.086 127.317 984.726 128.906 982.924 129.259V131.812C984.726 132.167 986.086 133.753 986.086 135.661V141.265C986.086 143.172 984.726 144.759 982.924 145.114V147.667C984.726 148.02 986.086 149.608 986.086 151.515V157.12C986.086 159.025 984.726 160.614 982.924 160.967V163.519C984.726 163.875 986.086 165.461 986.086 167.368V172.973C986.086 174.88 984.726 176.466 982.924 176.822V183.525C982.924 184.391 983.268 185.223 983.881 185.835L988.277 190.232C990.348 192.302 991.512 195.112 991.512 198.039V207.473C991.512 217.795 983.143 226.163 972.821 226.163H834.701C824.379 226.163 816.009 217.795 816.009 207.473V134.564C816.009 126.313 819.38 118.419 825.339 112.711ZM862.853 122.608H916.071C918.655 122.608 920.749 120.514 920.749 117.931V64.7181C920.749 62.179 918.724 60.1048 916.187 60.0433C914.907 60.0126 913.67 60.5062 912.766 61.4127L859.547 114.624C856.601 117.57 858.687 122.608 862.853 122.608Z" stroke="#27569B" stroke-width="2.6842" stroke-miterlimit="10"/>
<path d="M856.049 197.877H951.472C960.717 197.877 968.21 190.385 968.21 181.141V155.635C968.21 146.391 960.717 138.898 951.472 138.898H856.049C846.804 138.898 839.311 146.391 839.311 155.635V181.143C839.311 190.385 846.806 197.877 856.049 197.877Z" stroke="#FFAA2E" stroke-width="2.6842" stroke-miterlimit="10"/>
<path d="M937.74 124.156H959.104C963.58 124.156 967.208 120.528 967.208 116.053V68.1461C967.208 63.671 963.58 60.043 959.104 60.043H937.74C933.265 60.043 929.637 63.671 929.637 68.1461V116.053C929.637 120.528 933.263 124.156 937.74 124.156Z" stroke="#FFAA2E" stroke-width="2.6842" stroke-miterlimit="10"/>
</g>
<mask id="mask10_207_7" style="mask-type:luminance" maskUnits="userSpaceOnUse" x="1" y="0" width="2305" height="1210">
<path d="M1 0H2306V1210H1V0Z" fill="white"/>
</mask>
<g mask="url(#mask10_207_7)">
<path d="M813.286 -53.8926H870.158L898.594 -4.64558L870.158 44.6014H813.286L784.85 -4.64558L813.286 -53.8926ZM841.722 23.993C857.54 23.993 870.365 11.1708 870.365 -4.6475C870.365 -20.4639 857.542 -33.288 841.722 -33.288C825.902 -33.288 813.078 -20.4659 813.078 -4.6475C813.08 11.1708 825.904 23.993 841.722 23.993Z" stroke="#FFAA2E" stroke-width="2.6842" stroke-miterlimit="10"/>
</g>
<mask id="mask11_207_7" style="mask-type:luminance" maskUnits="userSpaceOnUse" x="1" y="0" width="2305" height="1210">
<path d="M1 0H2306V1210H1V0Z" fill="white"/>
</mask>
<g mask="url(#mask11_207_7)">
<path d="M312.058 741.578V793.75C312.058 796.003 310.095 797.83 307.675 797.83H298.885V806.889C298.885 808.184 297.757 809.234 296.367 809.234H293.445V810.239C293.445 810.85 292.913 811.345 292.256 811.345H284.92C284.265 811.345 283.731 810.85 283.731 810.239V809.234H280.81C279.419 809.234 278.292 808.186 278.292 806.889V797.83H269.502C267.082 797.83 265.118 796.003 265.118 793.75V741.578" stroke="#27569B" stroke-width="2.6842" stroke-miterlimit="10"/>
<path d="M255.699 741.578H321.479C323.59 741.578 325.304 739.867 325.304 737.754V731.886C325.304 729.776 323.592 728.064 321.479 728.064H255.699C253.588 728.064 251.876 729.776 251.876 731.886V737.754C251.876 739.867 253.588 741.578 255.699 741.578Z" stroke="#FFAA2E" stroke-width="2.6842" stroke-miterlimit="10"/>
<path d="M277.106 528.225H286.09H297.575H300.074C302.127 528.225 303.792 529.89 303.792 531.943V552.557H298.328H286.09H273.388V531.943C273.388 529.888 275.053 528.225 277.106 528.225Z" stroke="#FFAA2E" stroke-width="2.6842" stroke-miterlimit="10"/>
<path d="M271.448 676.75H305.731V717.281H271.448V676.75Z" stroke="#FFAA2E" stroke-width="2.6842" stroke-miterlimit="10"/>
<path d="M325.736 676.75L331.525 680.027V714.006L325.736 717.281H305.731V676.75H325.736Z" stroke="#FFAA2E" stroke-width="2.6842" stroke-miterlimit="10"/>
<path d="M251.444 676.75H261.476H267.122H271.448V717.281H267.122H261.476H251.444L245.655 714.006V680.027L251.444 676.75Z" stroke="#FFAA2E" stroke-width="2.6842" stroke-miterlimit="10"/>
<path d="M263.787 571.129V566.664C263.787 563.018 266.744 560.064 270.387 560.064H288.587H300.825H306.789C310.433 560.064 313.389 563.018 313.389 566.664V571.129H310.056V575.151H310.124C311.927 575.151 313.391 576.615 313.391 578.418C313.391 580.222 311.927 581.685 310.124 581.685H310.056V583.681H310.124C311.927 583.681 313.391 585.142 313.391 586.948C313.391 588.753 311.927 590.215 310.124 590.215H310.056V592.21H310.124C311.927 592.21 313.391 593.672 313.391 595.477C313.391 597.281 311.927 598.744 310.124 598.744H310.056V600.738H310.124C311.927 600.738 313.391 602.199 313.391 604.005C313.391 605.808 311.927 607.272 310.124 607.272H310.056V609.265H310.124C311.927 609.265 313.391 610.729 313.391 612.532C313.391 614.336 311.927 615.799 310.124 615.799H310.056V622.114C312.012 623.121 313.389 625.103 313.389 627.454V656.711H310.056V667.555H276.855H267.122V656.711H263.787V627.454C263.787 625.103 265.167 623.123 267.122 622.116V615.799H267.055C265.251 615.799 263.787 614.338 263.787 612.532C263.787 610.729 265.251 609.265 267.055 609.265H267.122V607.272H267.055C265.251 607.272 263.787 605.808 263.787 604.005C263.787 602.201 265.251 600.738 267.055 600.738H267.122V598.744H267.055C265.251 598.744 263.787 597.282 263.787 595.477C263.787 593.672 265.251 592.21 267.055 592.21H267.122V590.211H267.055C265.251 590.211 263.787 588.749 263.787 586.944C263.787 585.14 265.251 583.677 267.055 583.677H267.122V581.681H267.055C265.251 581.681 263.787 580.22 263.787 578.414C263.787 576.611 265.251 575.147 267.055 575.147H267.122V571.125H263.787V571.129Z" stroke="#27569B" stroke-width="2.6842" stroke-miterlimit="10"/>
<path d="M271.574 796.83V810.953C271.574 816.419 276.006 820.85 281.472 820.85H290.139" stroke="#27569B" stroke-width="2.6842" stroke-miterlimit="10"/>
</g>
<mask id="mask12_207_7" style="mask-type:luminance" maskUnits="userSpaceOnUse" x="1" y="0" width="2305" height="1210">
<path d="M1 0H2306V1210H1V0Z" fill="white"/>
</mask>
<g mask="url(#mask12_207_7)">
<path d="M506.594 83.5923V33.2909L536.35 30.0335C539.008 19.7773 543.042 10.0992 548.289 1.18942L529.558 -22.1444L565.129 -57.7107L588.464 -38.9826C597.375 -44.2317 607.052 -48.2631 617.311 -50.9212L620.567 -80.6719H670.873L674.131 -50.9212C684.388 -48.2631 694.067 -44.2298 702.978 -38.9826L726.312 -57.7107L761.884 -22.1424L743.154 1.19134C748.402 10.1012 752.436 19.7773 755.094 30.0354L784.848 33.2928V83.5942L755.094 86.8497C752.436 97.1079 748.402 106.784 743.154 115.694L761.884 139.026L726.312 174.594L702.978 155.866C694.067 161.113 684.39 165.146 674.131 167.805L670.873 197.557H620.567L617.311 167.805C607.052 165.146 597.375 161.115 588.464 155.866L565.129 174.594L529.558 139.026L548.289 115.694C543.042 106.784 539.008 97.1079 536.35 86.8497L506.594 83.5923ZM645.722 149.084C695.786 149.084 736.372 108.503 736.372 58.4435C736.372 8.38412 695.786 -32.197 645.722 -32.197C595.657 -32.197 555.072 8.38412 555.072 58.4435C555.072 108.501 595.657 149.084 645.722 149.084Z" stroke="#27569B" stroke-width="2.6842" stroke-miterlimit="10" stroke-dasharray="7.38 7.38"/>
</g>
<mask id="mask13_207_7" style="mask-type:luminance" maskUnits="userSpaceOnUse" x="1" y="0" width="2305" height="1210">
<path d="M1 0H2306V1210H1V0Z" fill="white"/>
</mask>
<g mask="url(#mask13_207_7)">
<path d="M530.005 210.408H565.911L583.863 241.499L565.911 272.591H530.005L512.053 241.499L530.005 210.408ZM547.959 259.582C557.945 259.582 566.042 251.487 566.042 241.501C566.042 231.516 557.945 223.42 547.959 223.42C537.973 223.42 529.876 231.516 529.876 241.501C529.874 251.487 537.971 259.582 547.959 259.582Z" stroke="#27569B" stroke-width="2.6842" stroke-miterlimit="10"/>
</g>
<mask id="mask14_207_7" style="mask-type:luminance" maskUnits="userSpaceOnUse" x="1" y="0" width="2305" height="1210">
<path d="M1 0H2306V1210H1V0Z" fill="white"/>
</mask>
<g mask="url(#mask14_207_7)">
<path d="M383.932 51.6562H397.919L404.913 63.7697L397.919 75.8831H383.932L376.938 63.7697L383.932 51.6562Z" stroke="#27569B" stroke-width="2.6842" stroke-miterlimit="10"/>
</g>
<mask id="mask15_207_7" style="mask-type:luminance" maskUnits="userSpaceOnUse" x="1" y="0" width="2305" height="1210">
<path d="M1 0H2306V1210H1V0Z" fill="white"/>
</mask>
<g mask="url(#mask15_207_7)">
<path d="M875.878 247.469H889.866L896.859 259.582L889.866 271.696H875.878L868.884 259.582L875.878 247.469Z" stroke="#27569B" stroke-width="2.6842" stroke-miterlimit="10"/>
</g>
<mask id="mask16_207_7" style="mask-type:luminance" maskUnits="userSpaceOnUse" x="1" y="0" width="2305" height="1210">
<path d="M1 0H2306V1210H1V0Z" fill="white"/>
</mask>
<g mask="url(#mask16_207_7)">
<path d="M19.8049 581.367H33.7924L40.7861 593.481L33.7924 605.594H19.8049L12.8112 593.481L19.8049 581.367Z" stroke="#FFAA2E" stroke-width="2.6842" stroke-miterlimit="10"/>
</g>
<mask id="mask17_207_7" style="mask-type:luminance" maskUnits="userSpaceOnUse" x="1" y="0" width="2305" height="1210">
<path d="M1 0H2306V1210H1V0Z" fill="white"/>
</mask>
<g mask="url(#mask17_207_7)">
<path d="M456.935 705.166H470.922L477.916 717.279L470.922 729.393H456.935L449.941 717.279L456.935 705.166Z" stroke="#FFAA2E" stroke-width="2.6842" stroke-miterlimit="10"/>
</g>
<mask id="mask18_207_7" style="mask-type:luminance" maskUnits="userSpaceOnUse" x="1" y="0" width="2305" height="1210">
<path d="M1 0H2306V1210H1V0Z" fill="white"/>
</mask>
<g mask="url(#mask18_207_7)">
<path d="M-16.3122 250.518H19.5939L37.5459 281.609L19.5939 312.7H-16.3122L-34.2645 281.609L-16.3122 250.518ZM1.63977 299.692C11.6262 299.692 19.7224 291.596 19.7224 281.611C19.7224 271.625 11.6262 263.53 1.63977 263.53C-8.34664 263.53 -16.4431 271.625 -16.4431 281.611C-16.4431 291.594 -8.34664 299.692 1.63977 299.692Z" stroke="#FFAA2E" stroke-width="2.6842" stroke-miterlimit="10"/>
</g>
<mask id="mask19_207_7" style="mask-type:luminance" maskUnits="userSpaceOnUse" x="1" y="0" width="2305" height="1210">
<path d="M1 0H2306V1210H1V0Z" fill="white"/>
</mask>
<g mask="url(#mask19_207_7)">
<path d="M229.627 328.275V318.449L237.205 317.341C237.595 316.06 238.108 314.831 238.728 313.669L234.153 307.525L241.1 300.578L247.245 305.153C248.407 304.532 249.637 304.02 250.918 303.63L252.026 296.053H261.853L262.961 303.63C264.243 304.02 265.472 304.532 266.634 305.153L272.779 300.578L279.727 307.525L275.151 313.669C275.771 314.831 276.284 316.06 276.674 317.341L284.252 318.449V328.275L276.674 329.383C276.284 330.664 275.771 331.894 275.151 333.056L279.727 339.2L272.779 346.147L266.634 341.572C265.472 342.192 264.243 342.705 262.961 343.095L261.853 350.672H252.026L250.918 343.095C249.637 342.703 248.407 342.192 247.245 341.572L241.1 346.147L234.153 339.2L238.728 333.056C238.108 331.894 237.595 330.664 237.205 329.383L229.627 328.275ZM256.938 337.149C264.552 337.149 270.724 330.978 270.724 323.364C270.724 315.751 264.552 309.58 256.938 309.58C249.324 309.58 243.152 315.753 243.152 323.364C243.152 330.976 249.324 337.149 256.938 337.149Z" stroke="#27569B" stroke-width="2.6842" stroke-miterlimit="10"/>
</g>
<mask id="mask20_207_7" style="mask-type:luminance" maskUnits="userSpaceOnUse" x="1" y="0" width="2305" height="1210">
<path d="M1 0H2306V1210H1V0Z" fill="white"/>
</mask>
<g mask="url(#mask20_207_7)">
<path d="M353.592 729.236V719.41L361.17 718.302C361.56 717.021 362.073 715.792 362.693 714.63L358.118 708.486L365.065 701.539L371.21 706.114C372.372 705.493 373.601 704.98 374.883 704.591L375.991 697.014H385.818L386.926 704.591C388.208 704.98 389.437 705.493 390.599 706.114L396.744 701.539L403.691 708.486L399.116 714.63C399.736 715.792 400.249 717.021 400.639 718.302L408.217 719.41V729.236L400.639 730.344C400.249 731.625 399.736 732.855 399.116 734.017L403.691 740.161L396.744 747.108L390.599 742.533C389.437 743.153 388.208 743.666 386.926 744.056L385.818 751.633H375.991L374.883 744.056C373.601 743.664 372.372 743.153 371.21 742.533L365.065 747.108L358.118 740.161L362.693 734.017C362.073 732.855 361.56 731.625 361.17 730.344L353.592 729.236ZM380.904 738.108C388.519 738.108 394.69 731.937 394.69 724.323C394.69 716.71 388.519 710.539 380.904 710.539C373.29 710.539 367.117 716.712 367.117 724.323C367.117 731.937 373.29 738.108 380.904 738.108Z" stroke="#FFAA2E" stroke-width="2.6842" stroke-miterlimit="10"/>
</g>
<mask id="mask21_207_7" style="mask-type:luminance" maskUnits="userSpaceOnUse" x="1" y="0" width="2305" height="1210">
<path d="M1 0H2306V1210H1V0Z" fill="white"/>
</mask>
<g mask="url(#mask21_207_7)">
<path d="M760.813 197.218C760.813 205.751 767.731 212.67 776.266 212.67C784.8 212.67 791.719 205.751 791.719 197.218C791.719 183.599 776.266 172.588 776.266 172.588C776.266 172.588 760.813 183.599 760.813 197.218Z" stroke="#FFAA2E" stroke-width="2.6842" stroke-miterlimit="10"/>
</g>
<mask id="mask22_207_7" style="mask-type:luminance" maskUnits="userSpaceOnUse" x="1" y="0" width="2305" height="1210">
<path d="M1 0H2306V1210H1V0Z" fill="white"/>
</mask>
<g mask="url(#mask22_207_7)">
<path d="M532.506 544.98C532.506 553.513 539.425 560.431 547.959 560.431C556.493 560.431 563.412 553.513 563.412 544.98C563.412 531.361 547.959 520.35 547.959 520.35C547.959 520.35 532.506 531.361 532.506 544.98Z" stroke="#27569B" stroke-width="2.6842" stroke-miterlimit="10"/>
</g>
<mask id="mask23_207_7" style="mask-type:luminance" maskUnits="userSpaceOnUse" x="1" y="0" width="2305" height="1210">
<path d="M1 0H2306V1210H1V0Z" fill="white"/>
</mask>
<g mask="url(#mask23_207_7)">
<path d="M601.47 754.028C558.786 754.028 524.183 719.429 524.183 676.749C524.183 634.07 558.786 599.471 601.47 599.471C644.154 599.471 678.756 634.07 678.756 676.749C678.756 719.429 644.154 754.028 601.47 754.028Z" stroke="#FFAA2E" stroke-width="2.6842" stroke-miterlimit="10" stroke-dasharray="7.38 7.38"/>
<path d="M601.47 739.373C566.88 739.373 538.839 711.336 538.839 676.749C538.839 642.163 566.88 614.125 601.47 614.125C636.06 614.125 664.101 642.163 664.101 676.749C664.101 711.336 636.06 739.373 601.47 739.373Z" stroke="#27569B" stroke-width="2.6842" stroke-miterlimit="10"/>
</g>
<mask id="mask24_207_7" style="mask-type:luminance" maskUnits="userSpaceOnUse" x="1" y="0" width="2305" height="1210">
<path d="M1 0H2306V1210H1V0Z" fill="white"/>
</mask>
<g mask="url(#mask24_207_7)">
<path d="M615.159 121.987C580.018 105.089 565.231 62.9058 582.131 27.7684C599.031 -7.36897 641.218 -22.1549 676.359 -5.25682C711.5 11.6412 726.287 53.8243 709.388 88.9617C692.488 124.099 650.3 138.885 615.159 121.987Z" stroke="#FFAA2E" stroke-width="2.6842" stroke-miterlimit="10" stroke-dasharray="6.74 6.74"/>
<path d="M589.234 67.7656C584.124 36.5865 605.26 7.16907 636.443 2.05997C667.625 -3.04913 697.046 18.0848 702.155 49.2639C707.265 80.443 686.129 109.86 654.946 114.97C623.764 120.079 594.344 98.9447 589.234 67.7656Z" stroke="#27569B" stroke-width="2.6842" stroke-miterlimit="10"/>
</g>
<path d="M22.0453 1010.67H556.963L714.216 1167.9V1282.89" stroke="#27569B" stroke-width="1.3421" stroke-miterlimit="10" stroke-dasharray="7.38 7.38"/>
<path d="M714 1213H1381V1283" stroke="#27569B" stroke-width="1.3421" stroke-miterlimit="10" stroke-dasharray="7.38 7.38"/>
<path d="M1381 228H1092V501" stroke="#27569B" stroke-width="1.3421" stroke-miterlimit="10" stroke-dasharray="7.38 7.38"/>
<path d="M1021.96 345.143V494.487H949.018V798.386" stroke="#27569B" stroke-width="1.3421" stroke-miterlimit="10" stroke-dasharray="7.38 7.38"/>
<path d="M503.683 972.041H1.20439" stroke="#FFAA2E" stroke-width="2.6842" stroke-miterlimit="10" stroke-dasharray="7.38 7.38"/>
</g>
<defs>
<clipPath id="clip0_207_7">
<rect width="1380" height="1283" fill="white" transform="translate(0.864746)"/>
</clipPath>
</defs>
</svg>
