<svg width="626" height="585" viewBox="0 0 626 585" fill="none" xmlns="http://www.w3.org/2000/svg">
<path fill-rule="evenodd" clip-rule="evenodd" d="M439 4.50195V9.00195H435H431V17.002V25.002H426.5H422V29.502V34.002H413.5H405V38.002V42.002H401H397V50.502V59.002H384.5H372V63.502V68.002H367.5H363L363.007 78.252C363.011 83.89 363.301 91.539 363.652 95.252L364.289 102.002H368.145C371.976 102.002 372 102.027 372 106.002V110.002H363.5H355V152.502V195.002H350.5H346V241.502V288.002H350.5H355V305.002V322.002H359H363V326.502V331.002H367.5H372V343.502V356.002H375.943C379.866 356.002 379.886 356.023 380.193 360.252L380.5 364.502L388.75 364.792L397 365.083V369.042V373.002H405.46H413.919L414.21 381.252L414.5 389.502L435.25 389.772L456 390.043V394.022V398.002H460.5H465V469.752V541.502H257.75H50.5L50.193 545.752L49.885 550.002H24.943H0V563.002V576.002H3.943C7.866 576.002 7.886 576.023 8.193 580.252L8.5 584.502L254 584.802C389.025 584.966 503.212 584.813 507.75 584.462L516 583.822V579.912V576.002H520.5H525V563.002V550.002H520.5H516V474.002V398.002H532.443H548.885L549.193 393.752L549.5 389.502L557.5 389.475C561.9 389.461 567.638 389.348 570.25 389.225C574.954 389.004 575 388.968 575 385.559C575 382.224 575.133 382.107 579.25 381.809L583.5 381.502L583.774 364.752L584.048 348.002H588.024H592V343.502V339.002H595.943C599.866 339.002 599.886 338.981 600.193 334.752C600.499 330.523 600.521 330.501 604.75 330.195L609 329.887V313.445V297.002H613.5H618V263.002V229.002H613.5H609V224.502V220.002H613H617V216.002V212.002H621.5H626V182.502V153.002H622.118H618.237L617.537 144.599L616.837 136.196L608.932 135.496L601.027 134.796L600.763 101.649L600.5 68.502L596.25 68.195C592.05 67.891 592 67.842 592 64.089V60.291L585.25 59.654C581.538 59.303 575.913 59.013 572.75 59.009L567 59.002V55.002C567 51.012 566.99 51.002 563.057 51.002C559.134 51.002 559.114 50.981 558.807 46.752L558.5 42.502L550.274 42.212L542.048 41.922L541.774 25.212L541.5 8.50195L537.25 8.19495C533.021 7.88795 533 7.86795 533 3.94495V0.00195312H486H439V4.50195Z" fill="black"/>
<path fill-rule="evenodd" clip-rule="evenodd" d="M439 4.50195V9.00195H435H431V17.002V25.002H426.5H422V29.502V34.002H413.5H405V38.002V42.002H401H397V50.502V59.002H384.5H372V63.502V68.002H367.5H363L363.007 78.252C363.011 83.89 363.301 91.539 363.652 95.252L364.289 102.002H368.145C371.976 102.002 372 102.027 372 106.002V110.002H363.5H355V152.502V195.002H350.5H346V241.502V288.002H350.5H355V305.002V322.002H359H363V326.502V331.002H367.5H372V343.502V356.002H375.943C379.866 356.002 379.886 356.023 380.193 360.252L380.5 364.502L388.75 364.792L397 365.083V369.042V373.002H405.46H413.919L414.21 381.252L414.5 389.502L435.25 389.772L456 390.043V394.022V398.002H460.5H465V469.752V541.502H257.75H50.5L50.193 545.752L49.885 550.002H24.943H0V563.002V576.002H3.943C7.866 576.002 7.886 576.023 8.193 580.252L8.5 584.502L254 584.777C389.025 584.928 503.212 584.776 507.75 584.437L516 583.822V579.912V576.002H520.5H525V563.002V550.002H520.652H516.305L515.649 537.742C515.289 530.999 515.245 504.336 515.551 478.492C515.858 452.647 516.084 423.964 516.054 414.752L516 398.002H532.443H548.885L549.193 393.752L549.5 389.502L557.5 389.475C561.9 389.461 567.638 389.348 570.25 389.225C574.954 389.004 575 388.968 575 385.559C575 382.224 575.133 382.107 579.25 381.809L583.5 381.502L583.774 364.752L584.048 348.002H588.024H592V343.502V339.002H595.943C599.866 339.002 599.886 338.981 600.193 334.752C600.499 330.51 600.509 330.501 604.822 330.191L609.144 329.88L608.979 325.691C608.889 323.387 608.856 315.99 608.907 309.252L609 297.002H613.368H617.735L617.875 263.002L618.014 229.002H613.507H609V224.502V220.002H613H617V216.002V212.002H621.435H625.871V182.502V153.002H622.054H618.237L617.537 144.599L616.837 136.196L608.932 135.496L601.027 134.796L600.763 101.649L600.5 68.502L596.25 68.195C592.05 67.891 592 67.842 592 64.089V60.291L585.25 59.654C581.538 59.303 575.913 59.013 572.75 59.009L567 59.002V55.002C567 51.012 566.99 51.002 563.057 51.002C559.134 51.002 559.114 50.981 558.807 46.752L558.5 42.502L550.274 42.212L542.048 41.922L541.774 25.212L541.5 8.50195L537.25 8.19495C533.021 7.88795 533 7.86795 533 3.94495V0.00195312H486H439V4.50195ZM607.25 169.708C606.013 169.946 603.987 169.946 602.75 169.708C601.513 169.469 602.525 169.274 605 169.274C607.475 169.274 608.487 169.469 607.25 169.708ZM599.264 228.706C598.034 228.943 595.784 228.949 594.264 228.72C592.744 228.49 593.75 228.296 596.5 228.288C599.25 228.281 600.494 228.469 599.264 228.706ZM600 250.002V254.002H596H592V250.002V246.002H596H600V250.002ZM361.25 271.708C360.012 271.946 357.988 271.946 356.75 271.708C355.512 271.469 356.525 271.274 359 271.274C361.475 271.274 362.488 271.469 361.25 271.708ZM378.25 321.708C377.012 321.946 374.988 321.946 373.75 321.708C372.512 321.469 373.525 321.274 376 321.274C378.475 321.274 379.488 321.469 378.25 321.708ZM456 343.002C456 346.907 455.917 347.002 452.5 347.002C449.083 347.002 449 346.907 449 343.002C449 339.097 449.083 339.002 452.5 339.002C455.917 339.002 456 339.097 456 343.002ZM446.25 372.708C445.012 372.946 442.988 372.946 441.75 372.708C440.512 372.469 441.525 372.274 444 372.274C446.475 372.274 447.488 372.469 446.25 372.708ZM581.25 372.708C580.013 372.946 577.987 372.946 576.75 372.708C575.513 372.469 576.525 372.274 579 372.274C581.475 372.274 582.487 372.469 581.25 372.708ZM547.762 381.689C546.806 381.939 545.006 381.948 543.762 381.709C542.518 381.47 543.3 381.265 545.5 381.254C547.7 381.243 548.718 381.439 547.762 381.689ZM499 462.002V466.002H495H491V462.002V458.002H495H499V462.002ZM488.25 567.708C487.012 567.946 484.988 567.946 483.75 567.708C482.512 567.469 483.525 567.274 486 567.274C488.475 567.274 489.488 567.469 488.25 567.708Z" fill="#C0B39A"/>
<path fill-rule="evenodd" clip-rule="evenodd" d="M439.272 4.002C439.272 6.477 439.467 7.49 439.706 6.252C439.944 5.014 439.944 2.99 439.706 1.752C439.467 0.514 439.272 1.527 439.272 4.002ZM515.795 17.501L516.089 35.002H520.045C523.993 35.002 524 35.01 524 39.002V43.002H528.5H533V46.945C533 50.868 533.021 50.888 537.25 51.195L541.5 51.502L541.196 59.752L540.892 68.002H549.446H558V64.002V60.002H562H566V64.002V68.002H570.5H575V81.002V94.002H571H567V89.502V85.002H562.5H558V89.502V94.002H562.5H567V98.002V102.002H575H583V110.502V119.002H575H567V123.002V127.002H571H575V135.502V144.002H587.5H600V169.502V195.002H596H592V191.002C592 187.468 591.726 187.002 589.647 187.002C588.352 187.002 584.527 186.713 581.147 186.36L575 185.717V194.36V203.002H578.97H582.94L583.22 215.752L583.5 228.502L592 228.416C596.675 228.368 598.587 228.505 596.25 228.72L592 229.112V237.557V246.002H596H600V250.002V254.002H596H592V262.502V271.002H583.5H575V275.502V280.002H578.858H582.715L583.358 286.149C583.711 289.529 584 295.154 584 298.649V305.002H575.5H567V301.002V297.002H562.5H558V301.002V305.002H562.5H567V309.002V313.002H571H575V321.502V330.002H570.5H566V326.002V322.002H557.46H548.919L549.21 330.252L549.5 338.502L553.695 338.807L557.89 339.112L558.195 351.807L558.5 364.502L550.25 364.179L542 363.855V359.929V356.002H537.5H533V347.502V339.002H528.408H523.817L524.158 355.752L524.5 372.502H520H515.5L515.193 368.252L514.885 364.002H507.061H499.237L498.529 372.502L497.82 381.002H494.565H491.309L490.658 393.752C489.816 410.269 489.803 535.821 490.642 543.855L491.285 550.002H495.142C498.952 550.002 499 550.05 499 553.857V557.713L492.25 558.35C488.538 558.701 473.238 558.991 458.25 558.995L431 559.002V563.002V567.002H249.5H68V563.002V559.002H34H0V567.502V576.002H3.943C7.866 576.002 7.886 576.023 8.193 580.252L8.5 584.502L254 584.777C389.025 584.928 503.212 584.776 507.75 584.437L516 583.822V579.912V576.002H520.5H525V563.002V550.002H520.652H516.305L515.649 537.742C515.289 530.999 515.245 504.336 515.551 478.492C515.858 452.647 516.084 423.964 516.054 414.752L516 398.002H532.443H548.885L549.193 393.752L549.5 389.502L557.5 389.475C561.9 389.461 567.638 389.348 570.25 389.225C574.954 389.004 575 388.968 575 385.559C575 382.224 575.133 382.107 579.25 381.809L583.5 381.502L583.774 364.752L584.048 348.002H588.024H592V343.502V339.002H595.943C599.866 339.002 599.886 338.981 600.193 334.752C600.499 330.51 600.509 330.501 604.822 330.191L609.144 329.88L608.979 325.691C608.889 323.387 608.856 315.99 608.907 309.252L609 297.002H613.368H617.735L617.875 263.002L618.014 229.002H613.507H609V224.502V220.002H613H617V216.002V212.002H621.435H625.871V182.502V153.002H622.054H618.237L617.537 144.599L616.837 136.196L608.932 135.496L601.027 134.796L600.763 101.649L600.5 68.502L596.25 68.195C592.05 67.891 592 67.842 592 64.089V60.291L585.25 59.654C581.538 59.303 575.913 59.013 572.75 59.009L567 59.002V55.002C567 51.012 566.99 51.002 563.057 51.002C559.134 51.002 559.114 50.981 558.807 46.752L558.5 42.502L550.274 42.212L542.048 41.922L541.774 25.212L541.5 8.502L537.25 8.195C533.021 7.888 533 7.868 533 3.945V0.00199986L524.25 0.000999928L515.5 0L515.795 17.501ZM431 13.002V17.002H435H439V13.002V9.002H435H431V13.002ZM422.175 29.752L422.349 34.502L422.73 30.307C423.103 26.179 423.177 26.105 427.305 25.732L431.5 25.351L426.75 25.177L422 25.002L422.175 29.752ZM457 30.502V35.002H461H465V30.502V26.002H461H457V30.502ZM482 30.559V35.117L486.25 34.809C490.479 34.503 490.501 34.481 490.807 30.252L491.115 26.002H486.557H482V30.559ZM405.272 38.002C405.272 40.477 405.467 41.489 405.706 40.252C405.944 39.015 405.944 36.989 405.706 35.752C405.467 34.515 405.272 35.527 405.272 38.002ZM431.193 55.252L431.5 59.502L439.75 59.792L448 60.083V55.542V51.002H439.443H430.885L431.193 55.252ZM508 59.442V67.881L511.75 68.192C515.39 68.493 515.509 68.627 515.807 72.752L516.115 77.002H524.557H533V72.502V68.002H528.5H524V64.002V60.002H520H516V55.502V51.002H512H508V59.442ZM456.5 68.002L455.792 76.002H451.896H448V80.502V85.002H452.5H457V81.002V77.002H461H465V68.502V60.002H461.104H457.208L456.5 68.002ZM490 72.502C490 77.609 489.751 77.52 500.853 76.36C506.974 75.72 507 75.704 507 72.502C507 69.3 506.974 69.284 500.853 68.644C489.751 67.484 490 67.395 490 72.502ZM541.667 76.669C541.3 77.035 541 79.06 541 81.169C541 84.974 541.029 85.002 545 85.002H549V80.502C549 76.069 548.951 76.002 545.667 76.002C543.833 76.002 542.033 76.302 541.667 76.669ZM363.358 91.149C363.711 94.529 364 98.354 364 99.649C364 101.728 364.466 102.002 368 102.002H372V106.002V110.002H380H388L388.007 104.252C388.011 101.09 388.301 95.465 388.652 91.752L389.289 85.002H376.002H362.715L363.358 91.149ZM414 89.002V93.002H418.5H423V89.002V85.002H418.5H414V89.002ZM516 98.002V102.002H511.5H507V110.502V119.002H511.5H516V115.092V111.182L524.5 110.473C534.045 109.678 533.437 110.477 532.358 100.149L531.715 94.002H523.858H516V98.002ZM356.75 110.708C357.988 110.946 360.012 110.946 361.25 110.708C362.488 110.469 361.475 110.274 359 110.274C356.525 110.274 355.512 110.469 356.75 110.708ZM541 114.502V119.002H549.5H558V114.502V110.002H549.5H541V114.502ZM414 119.502V128.002H410C406.122 128.002 406 128.105 406 131.385V134.767L413.463 135.466C417.568 135.851 421.393 135.877 421.963 135.525C422.585 135.14 423 130.109 423 122.943V111.002H418.5H414V119.502ZM448.58 117.002C448.206 120.302 448.206 125.702 448.58 129.002C449.254 134.962 449.28 135.002 452.5 135.002C455.72 135.002 455.746 134.962 456.42 129.002C456.794 125.702 456.794 120.302 456.42 117.002C455.746 111.042 455.72 111.002 452.5 111.002C449.28 111.002 449.254 111.042 448.58 117.002ZM499 131.502C499 134.919 499.095 135.002 503 135.002C506.905 135.002 507 134.919 507 131.502C507 128.085 506.905 128.002 503 128.002C499.095 128.002 499 128.085 499 131.502ZM371.75 135.747L363 136.08V140.041C363 143.996 362.993 144.002 359 144.002H355V148.002V152.002H359H363V147.858V143.715L369.887 144.355C373.675 144.707 379.525 144.707 382.887 144.356L389 143.717V139.36V135.002L384.75 135.208C382.413 135.321 376.563 135.563 371.75 135.747ZM532.667 135.669C532.3 136.035 532 138.06 532 140.169V144.002H540.5H549V140.144V136.287L542.853 135.644C535.108 134.835 533.497 134.839 532.667 135.669ZM423 157.002V161.002H418.443H413.885L414.193 165.252C414.499 169.492 414.509 169.502 418.5 169.502C422.491 169.502 422.501 169.492 422.807 165.252L423.115 161.002H431.057H439V157.002V153.002H431H423V157.002ZM465 165.002V169.002H469H473V165.002V161.002H469H465V165.002ZM499 164.912V168.822L507.5 169.531L516 170.239V174.12C516 177.982 516.02 178.002 520 178.002H524V169.502V161.002H511.5H499V164.912ZM549.394 162.418C549.095 163.196 548.997 165.109 549.175 166.668L549.5 169.502L562 169.817C568.875 169.99 578.212 169.837 582.75 169.477L591 168.822V165.552C591 162.352 590.885 162.267 585.75 161.65C582.862 161.303 573.623 161.015 565.219 161.011C552.957 161.004 549.83 161.282 549.394 162.418ZM381 165.396V168.79L372 169.502L363 170.214V174.108C363 177.984 362.982 178.002 359 178.002H355V186.502V195.002H363.5H372V191.059C372 187.136 372.021 187.116 376.25 186.809C380.479 186.503 380.501 186.481 380.807 182.252C381.114 178.023 381.134 178.002 385.057 178.002C389.499 178.002 389.603 177.664 388.352 167.252C387.731 162.085 387.668 162.002 384.361 162.002C381.207 162.002 381 162.211 381 165.396ZM607.25 169.708C606.013 169.946 603.987 169.946 602.75 169.708C601.513 169.469 602.525 169.274 605 169.274C607.475 169.274 608.487 169.469 607.25 169.708ZM406 178.002V186.002H410H414V178.002V170.002H410H406V178.002ZM431 191.002V195.002H435.5H440V191.002V187.002H435.5H431V191.002ZM490.358 193.149C490.711 196.529 491 200.129 491 201.149C491 202.799 491.878 203.002 499 203.002H507V195.002V187.002H498.358H489.715L490.358 193.149ZM516 191.002V195.002H520H524V191.002V187.002H520H516V191.002ZM549.79 195.252L549.5 203.502L541.25 203.198L533 202.894V207.448V212.002H541.5H550V208.002V204.002H554H558V195.502V187.002H554.04H550.081L549.79 195.252ZM380.667 203.669C380.3 204.035 380 205.835 380 207.669C380 210.891 379.867 211.002 376 211.002H372V215.502V220.002H363.5H355V224.002V228.002H350.5H346V233.147V238.291L352.75 237.654C356.462 237.303 362.313 237.013 365.75 237.009L372 237.002V229.092V221.182L380.5 220.473L389 219.765V211.384V203.002H385.167C383.058 203.002 381.033 203.302 380.667 203.669ZM452.693 203.739L447.886 204.116L448.193 207.809L448.5 211.502L456.75 211.792L465 212.083V207.542V203.002L461.25 203.182C459.188 203.281 455.337 203.532 452.693 203.739ZM397 216.002V220.002H401.5H406V216.002V212.002H401.5H397V216.002ZM431 220.502V229.002H435.5C440.607 229.002 440.518 229.251 439.358 218.149L438.715 212.002H434.858H431V220.502ZM533 224.502V229.002H537H541V224.502V220.002H537H533V224.502ZM491 233.002V237.002H499.5H508V233.002V229.002H499.5H491V233.002ZM381 241.502V246.002H389.5H398V241.502V237.002H389.5H381V241.502ZM422 250.002V254.002H417.943H413.885L414.193 258.252C414.499 262.481 414.521 262.503 418.75 262.809L423 263.117V259.059V255.002H427H431V250.502V246.002H426.5H422V250.002ZM449 250.002V254.002H453H457V250.002V246.002H453H449V250.002ZM516 250.502V255.002H520H524V250.502V246.002H520H516V250.502ZM533 250.002V254.002H537H541V250.002V246.002H537H533V250.002ZM575 250.002V254.002H579H583V250.002V246.002H579H575V250.002ZM550 258.502C550 261.919 550.095 262.002 554 262.002C557.905 262.002 558 261.919 558 258.502C558 255.085 557.905 255.002 554 255.002C550.095 255.002 550 255.085 550 258.502ZM516 266.502V271.002H520H524V266.502V262.002H520H516V266.502ZM346 275.502V288.002H354.5H363V284.147V280.291L369.5 279.684C373.075 279.35 378.925 279.35 382.5 279.684L389 280.291V284.147C389 287.969 389.034 288.002 392.943 288.002C396.866 288.002 396.886 287.981 397.193 283.752C397.499 279.523 397.521 279.501 401.75 279.195L406 278.887V270.945V263.002H402H398V267.002V271.002H391.147C387.377 271.002 381.527 271.291 378.147 271.644L372 272.287V267.644V263.002H359H346V275.502ZM361.25 271.708C360.012 271.946 357.988 271.946 356.75 271.708C355.512 271.469 356.525 271.274 359 271.274C361.475 271.274 362.488 271.469 361.25 271.708ZM431 273.316C431 274.632 431.289 278.475 431.642 281.855L432.285 288.002H435.642C438.885 288.002 439 287.867 439 284.057V280.112L443.75 279.807L448.5 279.502V275.502V271.502L439.75 271.213C431.108 270.928 431 270.954 431 273.316ZM490.667 279.669C490.3 280.035 490 282.06 490 284.169C490 287.974 489.971 288.002 486 288.002H482V292.002V296.002H490.5H499V287.502V279.002H495.167C493.058 279.002 491.033 279.302 490.667 279.669ZM545.75 279.737L541 280.112V284.057V288.002H549.5H558V283.502V279.002L554.25 279.182C552.188 279.281 548.362 279.531 545.75 279.737ZM516 292.502V297.002H520H524V292.502V288.002H520H516V292.502ZM410.25 296.734C406.033 297.114 406 297.148 406 301.059V305.002H401.5H397V308.943C397 311.111 397.439 313.155 397.976 313.487C398.512 313.819 402.337 313.783 406.476 313.408L414 312.726V308.864V305.002H418.5H423V300.502V296.002L418.75 296.177C416.413 296.273 412.587 296.524 410.25 296.734ZM448 301.002V305.002H443.5H439V308.943C439 311.111 439.456 313.166 440.014 313.511C440.571 313.855 444.621 313.824 449.014 313.44L457 312.744V304.873V297.002H452.5H448V301.002ZM355 313.502V322.002H359H363V326.502V331.002H367.5H372V325.901V320.801L376.5 321.159L381 321.516V317.759C381 314.042 381.043 314.002 385 314.002H389V309.502V305.002H372H355V313.502ZM499 325.502V338.002H502.847H506.694L507.318 326.36C507.661 319.956 507.703 314.331 507.412 313.86C507.12 313.388 505.109 313.002 502.941 313.002H499V325.502ZM444.25 330.712C440.037 331.113 440 331.151 440 335.059V339.002H435.5H431V343.002V347.002H440H449V343.002C449 339.11 449.093 339.002 452.443 339.002C455.762 339.002 455.899 339.153 456.29 343.252C456.513 345.589 456.651 343.677 456.598 339.002L456.5 330.502L452.5 330.404C450.3 330.351 446.587 330.489 444.25 330.712ZM372 347.161V356.002H375.943C379.866 356.002 379.886 356.023 380.193 360.252L380.5 364.502L388.75 364.792L397 365.083V369.042V373.002H405.46H413.919L414.21 381.252L414.5 389.502L435.25 389.772L456 390.043V394.022V398.002H464.5H473V389.502V381.002H469H465V376.348V371.693L452.75 372.144C446.012 372.392 442.188 372.435 444.25 372.241C447.889 371.897 448 371.771 448 367.945V364.002H439.5H431V368.502V373.002H427H423V364.502V356.002H414.5H406V351.502V347.002H402.057C398.134 347.002 398.114 346.981 397.807 342.752L397.5 338.502L384.75 338.411L372 338.32V347.161ZM581.25 372.708C580.013 372.946 577.987 372.946 576.75 372.708C575.513 372.469 576.525 372.274 579 372.274C581.475 372.274 582.487 372.469 581.25 372.708ZM547.762 381.689C546.806 381.939 545.006 381.948 543.762 381.709C542.518 381.47 543.3 381.265 545.5 381.254C547.7 381.243 548.718 381.439 547.762 381.689ZM499 462.002V466.002H495H491V462.002V458.002H495H499V462.002ZM50.398 542.407C50.102 543.179 50.044 545.317 50.27 547.157C50.645 550.216 50.694 550.143 50.84 546.309C50.999 542.134 51.017 542.115 55.25 541.734L59.5 541.351L55.219 541.177C52.337 541.059 50.761 541.461 50.398 542.407ZM439 545.355V550.002H452H465V546.002V542.002H459.651C456.709 542.002 450.859 541.711 446.651 541.355L439 540.709V545.355ZM488.25 567.708C487.012 567.946 484.988 567.946 483.75 567.708C482.512 567.469 483.525 567.274 486 567.274C488.475 567.274 489.488 567.469 488.25 567.708Z" fill="#746A5D"/>
<path fill-rule="evenodd" clip-rule="evenodd" d="M516 4.50195V9.00195H519.976H523.952L524.226 25.752L524.5 42.502H533H541.5L541.807 46.752C542.114 50.981 542.134 51.002 546.057 51.002C549.99 51.002 550 51.012 550 55.002V59.002H558.5H567V55.002C567 51.012 566.99 51.002 563.057 51.002C559.134 51.002 559.114 50.981 558.807 46.752L558.5 42.502L550.274 42.212L542.048 41.922L541.774 25.212L541.5 8.50195L537.25 8.19495C533.021 7.88795 533 7.86795 533 3.94495V0.00195312H524.5H516V4.50195ZM431 13.002V17.002H435H439V13.002V9.00195H435H431V13.002ZM422.175 29.752L422.349 34.502L422.73 30.307C423.103 26.179 423.177 26.105 427.305 25.732L431.5 25.351L426.75 25.177L422 25.002L422.175 29.752ZM575 63.36V68.002H578.858H582.715L583.358 74.149C584.518 85.251 584.607 85.002 579.5 85.002H575V93.502V102.002H579.5H584V108.355C584 111.85 583.711 117.475 583.358 120.855L582.715 127.002H578.858H575V131.502V136.002H583.5H592V140.002V144.002H596.5H601V156.445V168.887L605.25 169.27L609.5 169.653L605.25 169.827L601 170.002V174.002V178.002H605H609V186.502V195.002H596H583V191.002V187.002H579H575V191.002C575 194.977 575.024 195.002 578.858 195.002H582.715L583.358 201.149C583.711 204.529 584 210.379 584 214.149V221.002H588C591.905 221.002 592 221.085 592 224.502C592 227.954 592.058 228.002 596.257 228.002H600.514L600.157 232.502L599.799 237.002H595.899H592V241.502V246.002H595.85H599.7L600.28 256.984C600.598 263.025 600.607 270.408 600.299 273.392L599.739 278.817L591.87 279.514L584 280.21V284.106C584 287.985 584.018 288.002 588 288.002H592V296.502V305.002H583.5H575V318.002C575 332.886 576.119 331.611 564.147 330.36L558 329.717V325.86C558 322.026 557.975 322.002 554 322.002H550V330.502V339.002H553.943C557.866 339.002 557.886 339.023 558.193 343.252C558.491 347.377 558.61 347.511 562.25 347.812C565.896 348.114 566 348.232 566 352.062C566 355.898 565.908 356.002 562.5 356.002C559.049 356.002 559 356.061 559.002 360.252L559.005 364.502L550.002 364.181L541 363.86V359.931C541 356.014 540.988 356.002 537 356.002H533V364.648V373.295L516.02 372.76L499.039 372.226L498.77 393.364L498.5 414.502L494.75 414.812L491 415.123V436.562V458.002H495H499V462.002V466.002H495H491V503.502V541.002H495H499V545.502V550.002H503H507V554.502V559.002H494.5H482V562.945C482 566.868 482.021 566.888 486.25 567.195C488.587 567.364 381.938 567.502 249.25 567.502H8V563.252V559.002H4H0V567.502V576.002H3.943C7.866 576.002 7.886 576.023 8.193 580.252L8.5 584.502L254 584.777C389.025 584.928 503.212 584.776 507.75 584.437L516 583.822V579.912V576.002H520.5H525V563.002V550.002H520.652H516.305L515.649 537.742C515.289 530.999 515.245 504.336 515.551 478.492C515.858 452.647 516.084 423.964 516.054 414.752L516 398.002H532.443H548.885L549.193 393.752L549.5 389.502L557.5 389.475C561.9 389.461 567.638 389.348 570.25 389.225C574.954 389.004 575 388.968 575 385.559C575 382.224 575.133 382.107 579.25 381.809L583.5 381.502L583.774 364.752L584.048 348.002H588.024H592V343.502V339.002H595.943C599.866 339.002 599.886 338.981 600.193 334.752C600.499 330.51 600.509 330.501 604.822 330.191L609.144 329.88L608.979 325.691C608.889 323.387 608.856 315.99 608.907 309.252L609 297.002H613.368H617.735L617.875 263.002L618.014 229.002H613.507H609V224.502V220.002H613H617V216.002V212.002H621.435H625.871V182.502V153.002H622.054H618.237L617.537 144.599L616.837 136.196L608.932 135.496L601.027 134.796L600.763 101.649L600.5 68.502L596.25 68.195C592.021 67.888 592 67.868 592 63.945C592 60.471 591.72 60.002 589.647 60.002C588.352 60.002 584.527 59.713 581.147 59.36L575 58.7169V63.36ZM457 64.002V68.002H461H465V64.002V60.002H461H457V64.002ZM491 71.942V76.002H495.06H499.121L498.81 72.252C498.517 68.706 498.296 68.485 494.75 68.192L491 67.881V71.942ZM524 72.002V76.002H528H532V72.002V68.002H528H524V72.002ZM449 81.002C449 84.907 449.083 85.002 452.5 85.002C455.917 85.002 456 84.907 456 81.002C456 77.097 455.917 77.002 452.5 77.002C449.083 77.002 449 77.097 449 81.002ZM363.358 91.149C363.711 94.529 364 98.354 364 99.649C364 101.728 364.466 102.002 368 102.002H372V106.002V110.002H376H380V102.002V94.002H376H372V89.502V85.002H367.358H362.715L363.358 91.149ZM381 89.002C381 92.907 381.083 93.002 384.5 93.002C387.917 93.002 388 92.907 388 89.002C388 85.097 387.917 85.002 384.5 85.002C381.083 85.002 381 85.097 381 89.002ZM508 106.002V110.002H516H524V106.002V102.002H516H508V106.002ZM356.75 110.708C357.988 110.946 360.012 110.946 361.25 110.708C362.488 110.469 361.475 110.274 359 110.274C356.525 110.274 355.512 110.469 356.75 110.708ZM415 123.002V127.002H419H423V123.002V119.002H419H415V123.002ZM448 123.002V127.002H452H456V123.002V119.002H452H448V123.002ZM372 140.002V144.002H380.5H389V140.002V136.002H380.5H372V140.002ZM533 140.002V144.002H537H541V140.002V136.002H537H533V140.002ZM507.714 161.621C507.321 162.014 507 163.835 507 165.669C507 168.959 507.059 169.002 511.56 169.002H516.121L515.81 165.252C515.521 161.751 515.265 161.482 511.964 161.204C510.02 161.041 508.107 161.228 507.714 161.621ZM550 164.962V169.002H558.56H567.121L566.81 165.252L566.5 161.502L558.25 161.212L550 160.921V164.962ZM364 174.002V178.002H359.5H355V186.502V195.002H363.5H372V190.502V186.002H376C379.228 186.002 380 185.644 380 184.149C380 183.129 380.289 179.529 380.642 176.149L381.285 170.002H372.642H364V174.002ZM516 174.002V178.002H520H524V174.002V170.002H520H516V174.002ZM381 208.002V212.002H385H389V208.002V204.002H385H381V208.002ZM372 216.002V220.002H376H380V216.002V212.002H376H372V216.002ZM355 225.002V229.002H350.5H346V233.002V237.002H359H372V229.002V221.002H363.5H355V225.002ZM432 225.002C432 228.907 432.083 229.002 435.5 229.002C438.917 229.002 439 228.907 439 225.002C439 221.097 438.917 221.002 435.5 221.002C432.083 221.002 432 221.097 432 225.002ZM499 233.002V237.002H503H507V233.002V229.002H503H499V233.002ZM389 242.002V246.002H393H397V242.002V238.002H393H389V242.002ZM423 250.002V254.002H427H431V250.002V246.002H427H423V250.002ZM355 266.945C355 270.762 355.119 270.9 358.75 271.291C360.813 271.514 358.788 271.486 354.25 271.231L346 270.765V279.384V288.002H354.355H362.711L363.328 281.389C363.668 277.752 363.669 272.127 363.33 268.889L362.715 263.002H358.858C355.033 263.002 355 263.036 355 266.945ZM384.75 271.73C381.254 272.096 381 272.346 381 275.42V278.717L387.147 279.36C397.377 280.429 397 280.576 397 275.502V271.002L392.75 271.17C390.413 271.263 386.813 271.515 384.75 271.73ZM440 275.002V279.002H444H448V275.002V271.002H444H440V275.002ZM491 284.002C491 287.907 491.083 288.002 494.5 288.002C497.917 288.002 498 287.907 498 284.002C498 280.097 497.917 280.002 494.5 280.002C491.083 280.002 491 280.097 491 284.002ZM549 284.002V288.002H553.5H558V284.002V280.002H553.5H549V284.002ZM415 301.002C415 304.907 415.083 305.002 418.5 305.002C421.917 305.002 422 304.907 422 301.002C422 297.097 421.917 297.002 418.5 297.002C415.083 297.002 415 297.097 415 301.002ZM355 313.502V322.002H359H363V326.502V331.002H367.5H372V326.002V321.002H376C379.228 321.002 380 320.644 380 319.149C380 318.129 380.289 314.529 380.642 311.149L381.285 305.002H376.642H372V309.502V314.002H367.5H363V309.502V305.002H359H355V313.502ZM398 309.002V313.002H402H406V309.002V305.002H402H398V309.002ZM440 309.002V313.002H444H448V309.002V305.002H444H440V309.002ZM499 322.002V330.002H503H507V322.002V314.002H503H499V322.002ZM448.398 339.407C448.102 340.179 448.044 342.317 448.27 344.157C448.645 347.218 448.694 347.146 448.84 343.312C448.995 339.242 449.107 339.112 452.75 338.73L456.5 338.338L452.719 338.17C450.27 338.061 448.747 338.497 448.398 339.407ZM372 347.502V356.002H375.943C379.866 356.002 379.886 356.023 380.193 360.252L380.5 364.502L388.75 364.792L397 365.083V369.042V373.002H405.46H413.919L414.21 381.252L414.5 389.502L435.25 389.772L456 390.043V394.022V398.002H460.5H465V385.502V373.002L452.25 372.827C445.238 372.731 441.413 372.48 443.75 372.27C447.978 371.889 448 371.866 448 367.887V363.887L443.75 364.195C439.655 364.491 439.489 364.634 439.198 368.119C438.9 371.679 438.814 371.746 433.698 372.36C430.839 372.704 425.238 372.989 421.25 372.993L414 373.002V364.502V356.002H406.09H398.18L397.471 347.502L396.763 339.002H392.882C389.02 339.002 389 339.022 389 343.002V347.002H384.5H380V343.002V339.002H376H372V347.502ZM581.25 372.708C580.013 372.946 577.987 372.946 576.75 372.708C575.513 372.469 576.525 372.274 579 372.274C581.475 372.274 582.487 372.469 581.25 372.708ZM547.762 381.689C546.806 381.939 545.006 381.948 543.762 381.709C542.518 381.47 543.3 381.265 545.5 381.254C547.7 381.243 548.718 381.439 547.762 381.689ZM52.75 541.708C53.987 541.946 56.013 541.946 57.25 541.708C58.487 541.469 57.475 541.274 55 541.274C52.525 541.274 51.513 541.469 52.75 541.708ZM447.998 545.752L448 550.002H456.5H465V546.075V542.149L456.498 541.825L447.995 541.502L447.998 545.752Z" fill="black"/>
<path fill-rule="evenodd" clip-rule="evenodd" d="M516 4.50195V9.00195H519.976H523.952L524.226 25.752L524.5 42.502H533H541.5L541.807 46.752C542.114 50.981 542.134 51.002 546.057 51.002C549.99 51.002 550 51.012 550 55.002V59.002H558.5H567V55.002C567 51.012 566.99 51.002 563.057 51.002C559.134 51.002 559.114 50.981 558.807 46.752L558.5 42.502L550.274 42.212L542.048 41.922L541.774 25.212L541.5 8.50195L537.25 8.19495C533.021 7.88795 533 7.86795 533 3.94495V0.00195312H524.5H516V4.50195ZM431.272 13.002C431.272 15.477 431.467 16.49 431.706 15.252C431.944 14.014 431.944 11.99 431.706 10.752C431.467 9.51395 431.272 10.527 431.272 13.002ZM422.175 29.752L422.349 34.502L422.73 30.307C423.103 26.179 423.177 26.105 427.305 25.732L431.5 25.351L426.75 25.177L422 25.002L422.175 29.752ZM575 63.36V68.002H578.858H582.715L583.358 74.149C584.518 85.251 584.607 85.002 579.5 85.002H575V93.502V102.002H579.5H584V108.355C584 111.85 583.711 117.475 583.358 120.855L582.715 127.002H578.858H575V131.502V136.002H583.5H592V140.002V144.002H596.5H601V156.445V168.887L605.25 169.27L609.5 169.653L605.25 169.827L601 170.002V174.002V178.002H605H609V186.502V195.002H596H583V191.002V187.002H579H575V191.002C575 194.977 575.024 195.002 578.858 195.002H582.715L583.358 201.149C583.711 204.529 584 210.379 584 214.149V221.002H588C591.905 221.002 592 221.085 592 224.502C592 227.954 592.058 228.002 596.257 228.002H600.514L600.157 232.502L599.799 237.002H595.899H592V241.502V246.002H595.85H599.7L600.28 256.984C600.598 263.025 600.607 270.408 600.299 273.392L599.739 278.817L591.87 279.514L584 280.21V284.106C584 287.985 584.018 288.002 588 288.002H592V296.502V305.002H583.5H575V318.002C575 332.886 576.119 331.611 564.147 330.36L558 329.717V325.86C558 322.026 557.975 322.002 554 322.002H550V330.502V339.002H553.943C557.866 339.002 557.886 339.023 558.193 343.252C558.491 347.377 558.61 347.511 562.25 347.812C565.896 348.114 566 348.232 566 352.062C566 355.898 565.908 356.002 562.5 356.002C559.049 356.002 559 356.061 559.002 360.252L559.005 364.502L550.002 364.181L541 363.86V359.931C541 356.014 540.988 356.002 537 356.002H533V364.648V373.295L516.02 372.76L499.039 372.226L498.77 393.364L498.5 414.502L494.75 414.812L491 415.123V436.562V458.002H495H499V462.002V466.002H495H491V503.502V541.002H495H499V545.502V550.002H503H507V554.502V559.002H494.5H482V562.945C482 566.868 482.021 566.888 486.25 567.195C488.587 567.364 381.938 567.502 249.25 567.502H8V563.252V559.002H4H0V567.502V576.002H3.943C7.866 576.002 7.886 576.023 8.193 580.252L8.5 584.502L254 584.777C389.025 584.928 503.212 584.776 507.75 584.437L516 583.822V579.912V576.002H520.5H525V563.002V550.002H520.652H516.305L515.649 537.742C515.289 530.999 515.245 504.336 515.551 478.492C515.858 452.647 516.084 423.964 516.054 414.752L516 398.002H532.443H548.885L549.193 393.752L549.5 389.502L557.5 389.475C561.9 389.461 567.638 389.348 570.25 389.225C574.954 389.004 575 388.968 575 385.559C575 382.224 575.133 382.107 579.25 381.809L583.5 381.502L583.774 364.752L584.048 348.002H588.024H592V343.502V339.002H595.943C599.866 339.002 599.886 338.981 600.193 334.752C600.499 330.51 600.509 330.501 604.822 330.191L609.144 329.88L608.979 325.691C608.889 323.387 608.856 315.99 608.907 309.252L609 297.002H613.368H617.735L617.875 263.002L618.014 229.002H613.507H609V224.502V220.002H613H617V216.002V212.002H621.435H625.871V182.502V153.002H622.054H618.237L617.537 144.599L616.837 136.196L608.932 135.496L601.027 134.796L600.763 101.649L600.5 68.502L596.25 68.195C592.021 67.888 592 67.868 592 63.945C592 60.471 591.72 60.002 589.647 60.002C588.352 60.002 584.527 59.713 581.147 59.36L575 58.7169V63.36ZM457 64.002V68.002H461H465V64.002V60.002H461H457V64.002ZM491 71.942V76.002H495.06H499.121L498.81 72.252C498.517 68.706 498.296 68.485 494.75 68.192L491 67.881V71.942ZM524 72.002V76.002H528H532V72.002V68.002H528H524V72.002ZM449 81.002C449 84.907 449.083 85.002 452.5 85.002C455.917 85.002 456 84.907 456 81.002C456 77.097 455.917 77.002 452.5 77.002C449.083 77.002 449 77.097 449 81.002ZM363.358 91.149C363.711 94.529 364 98.354 364 99.649C364 101.728 364.466 102.002 368 102.002H372V106.002V110.002H376H380V102.002V94.002H376H372V89.502V85.002H367.358H362.715L363.358 91.149ZM381 89.002C381 92.907 381.083 93.002 384.5 93.002C387.917 93.002 388 92.907 388 89.002C388 85.097 387.917 85.002 384.5 85.002C381.083 85.002 381 85.097 381 89.002ZM508 106.002V110.002H516H524V106.002V102.002H516H508V106.002ZM356.75 110.708C357.988 110.946 360.012 110.946 361.25 110.708C362.488 110.469 361.475 110.274 359 110.274C356.525 110.274 355.512 110.469 356.75 110.708ZM415 123.002V127.002H419H423V123.002V119.002H419H415V123.002ZM448 123.002V127.002H452H456V123.002V119.002H452H448V123.002ZM372 140.002V144.002H380.5H389V140.002V136.002H380.5H372V140.002ZM533 140.002V144.002H537H541V140.002V136.002H537H533V140.002ZM507.714 161.621C507.321 162.014 507 163.835 507 165.669C507 168.959 507.059 169.002 511.56 169.002H516.121L515.81 165.252C515.521 161.751 515.265 161.482 511.964 161.204C510.02 161.041 508.107 161.228 507.714 161.621ZM550 164.962V169.002H558.56H567.121L566.81 165.252L566.5 161.502L558.25 161.212L550 160.921V164.962ZM364 174.002V178.002H359.5H355V186.502V195.002H363.5H372V190.502V186.002H376C379.228 186.002 380 185.644 380 184.149C380 183.129 380.289 179.529 380.642 176.149L381.285 170.002H372.642H364V174.002ZM516 174.002V178.002H520H524V174.002V170.002H520H516V174.002ZM381 208.002V212.002H385H389V208.002V204.002H385H381V208.002ZM372 216.002V220.002H376H380V216.002V212.002H376H372V216.002ZM355 225.002V229.002H350.5H346V233.002V237.002H359H372V229.002V221.002H363.5H355V225.002ZM432 225.002C432 228.907 432.083 229.002 435.5 229.002C438.917 229.002 439 228.907 439 225.002C439 221.097 438.917 221.002 435.5 221.002C432.083 221.002 432 221.097 432 225.002ZM499 233.002V237.002H503H507V233.002V229.002H503H499V233.002ZM389 242.002V246.002H393H397V242.002V238.002H393H389V242.002ZM423 250.002V254.002H427H431V250.002V246.002H427H423V250.002ZM355 266.945C355 270.762 355.119 270.9 358.75 271.291C360.813 271.514 358.788 271.486 354.25 271.231L346 270.765V279.384V288.002H354.355H362.711L363.328 281.389C363.668 277.752 363.669 272.127 363.33 268.889L362.715 263.002H358.858C355.033 263.002 355 263.036 355 266.945ZM384.75 271.73C381.254 272.096 381 272.346 381 275.42V278.717L387.147 279.36C397.377 280.429 397 280.576 397 275.502V271.002L392.75 271.17C390.413 271.263 386.813 271.515 384.75 271.73ZM440 275.002V279.002H444H448V275.002V271.002H444H440V275.002ZM491 284.002C491 287.907 491.083 288.002 494.5 288.002C497.917 288.002 498 287.907 498 284.002C498 280.097 497.917 280.002 494.5 280.002C491.083 280.002 491 280.097 491 284.002ZM549 284.002V288.002H553.5H558V284.002V280.002H553.5H549V284.002ZM415 301.002C415 304.907 415.083 305.002 418.5 305.002C421.917 305.002 422 304.907 422 301.002C422 297.097 421.917 297.002 418.5 297.002C415.083 297.002 415 297.097 415 301.002ZM355 313.502V322.002H359H363V326.502V331.002H367.5H372V326.002V321.002H376C379.228 321.002 380 320.644 380 319.149C380 318.129 380.289 314.529 380.642 311.149L381.285 305.002H376.642H372V309.502V314.002H367.5H363V309.502V305.002H359H355V313.502ZM398 309.002V313.002H402H406V309.002V305.002H402H398V309.002ZM440 309.002V313.002H444H448V309.002V305.002H444H440V309.002ZM499 322.002V330.002H503H507V322.002V314.002H503H499V322.002ZM448.398 339.407C448.102 340.179 448.044 342.317 448.27 344.157C448.645 347.218 448.694 347.146 448.84 343.312C448.995 339.242 449.107 339.112 452.75 338.73L456.5 338.338L452.719 338.17C450.27 338.061 448.747 338.497 448.398 339.407ZM372 347.502V356.002H375.943C379.866 356.002 379.886 356.023 380.193 360.252L380.5 364.502L388.75 364.792L397 365.083V369.042V373.002H405.46H413.919L414.21 381.252L414.5 389.502L435.25 389.772L456 390.043V394.022V398.002H460.5H465V385.502V373.002L452.25 372.827C445.238 372.731 441.413 372.48 443.75 372.27C447.978 371.889 448 371.866 448 367.887V363.887L443.75 364.195C439.655 364.491 439.489 364.634 439.198 368.119C438.9 371.679 438.814 371.746 433.698 372.36C430.839 372.704 425.238 372.989 421.25 372.993L414 373.002V364.502V356.002H406.09H398.18L397.471 347.502L396.763 339.002H392.882C389.02 339.002 389 339.022 389 343.002V347.002H384.5H380V343.002V339.002H376H372V347.502ZM581.25 372.708C580.013 372.946 577.987 372.946 576.75 372.708C575.513 372.469 576.525 372.274 579 372.274C581.475 372.274 582.487 372.469 581.25 372.708ZM547.762 381.689C546.806 381.939 545.006 381.948 543.762 381.709C542.518 381.47 543.3 381.265 545.5 381.254C547.7 381.243 548.718 381.439 547.762 381.689ZM52.75 541.708C53.987 541.946 56.013 541.946 57.25 541.708C58.487 541.469 57.475 541.274 55 541.274C52.525 541.274 51.513 541.469 52.75 541.708ZM447.998 545.752L448 550.002H456.5H465V546.075V542.149L456.498 541.825L447.995 541.502L447.998 545.752Z" fill="#C0B39A"/>
<path fill-rule="evenodd" clip-rule="evenodd" d="M516 4.50195V9.00195H519.976H523.952L524.226 25.752L524.5 42.502H533H541.5L541.807 46.752C542.114 50.981 542.134 51.002 546.057 51.002C549.99 51.002 550 51.012 550 55.002V59.002H558.5H567V55.002C567 51.012 566.99 51.002 563.057 51.002C559.134 51.002 559.114 50.981 558.807 46.752L558.5 42.502L550.274 42.212L542.048 41.922L541.774 25.212L541.5 8.50195L537.25 8.19495C533.021 7.88795 533 7.86795 533 3.94495V0.00195312H524.5H516V4.50195ZM422.398 26.407C422.102 27.179 422.044 29.317 422.27 31.157C422.645 34.216 422.694 34.143 422.84 30.309C422.999 26.134 423.017 26.115 427.25 25.734L431.5 25.351L427.219 25.177C424.337 25.059 422.761 25.461 422.398 26.407ZM575 63.36V68.002H578.858H582.715L583.358 74.149C584.518 85.251 584.607 85.002 579.5 85.002H575V93.502V102.002H579.5H584V108.355C584 111.85 583.711 117.475 583.358 120.855L582.715 127.002H578.858H575V131.502V136.002H583.5H592V140.002V144.002H596.5H601V156.445V168.887L605.25 169.27L609.5 169.653L605.25 169.827L601 170.002V174.002V178.002H605H609V186.502V195.002H596H583V191.002V187.002H579H575V191.002C575 194.977 575.024 195.002 578.858 195.002H582.715L583.358 201.149C583.711 204.529 584 210.379 584 214.149V221.002H588C591.905 221.002 592 221.085 592 224.502C592 227.954 592.058 228.002 596.257 228.002H600.514L600.157 232.502L599.799 237.002H595.899H592V241.502V246.002H595.85H599.7L600.28 256.984C600.598 263.025 600.607 270.408 600.299 273.392L599.739 278.817L591.87 279.514L584 280.21V284.106C584 287.985 584.018 288.002 588 288.002H592V296.502V305.002H583.5H575V318.002C575 332.886 576.119 331.611 564.147 330.36L558 329.717V325.86C558 322.026 557.975 322.002 554 322.002H550V330.502V339.002H553.943C557.866 339.002 557.886 339.023 558.193 343.252C558.491 347.377 558.61 347.511 562.25 347.812C565.896 348.114 566 348.232 566 352.062C566 355.898 565.908 356.002 562.5 356.002C559.049 356.002 559 356.061 559.002 360.252L559.005 364.502L550.002 364.181L541 363.86V359.931C541 356.014 540.988 356.002 537 356.002H533V364.648V373.295L516.02 372.76L499.039 372.226L498.77 393.364L498.5 414.502L494.75 414.812L491 415.123V436.562V458.002H495H499V462.002V466.002H495H491V503.502V541.002H495H499V545.502V550.002H503H507V554.502V559.002H494.5H482V562.945C482 566.868 482.021 566.888 486.25 567.195C488.587 567.364 381.938 567.502 249.25 567.502H8V563.252V559.002H4H0V567.502V576.002H3.943C7.866 576.002 7.886 576.023 8.193 580.252L8.5 584.502L254 584.777C389.025 584.928 503.212 584.776 507.75 584.437L516 583.822V579.912V576.002H520.5H525V563.002V550.002H520.652H516.305L515.649 537.742C515.289 530.999 515.245 504.336 515.551 478.492C515.858 452.647 516.084 423.964 516.054 414.752L516 398.002H532.443H548.885L549.193 393.752L549.5 389.502L557.5 389.475C561.9 389.461 567.638 389.348 570.25 389.225C574.954 389.004 575 388.968 575 385.559C575 382.224 575.133 382.107 579.25 381.809L583.5 381.502L583.774 364.752L584.048 348.002H588.024H592V343.502V339.002H595.943C599.866 339.002 599.886 338.981 600.193 334.752C600.499 330.51 600.509 330.501 604.822 330.191L609.144 329.88L608.979 325.691C608.889 323.387 608.856 315.99 608.907 309.252L609 297.002H613.368H617.735L617.875 263.002L618.014 229.002H613.507H609V224.502V220.002H613H617V216.002V212.002H621.435H625.871V182.502V153.002H622.054H618.237L617.537 144.599L616.837 136.196L608.932 135.496L601.027 134.796L600.763 101.649L600.5 68.502L596.25 68.195C592.021 67.888 592 67.868 592 63.945C592 60.471 591.72 60.002 589.647 60.002C588.352 60.002 584.527 59.713 581.147 59.36L575 58.7169V63.36ZM457 64.002V68.002H461H465V64.002V60.002H461H457V64.002ZM491 71.942V76.002H495.06H499.121L498.81 72.252C498.517 68.706 498.296 68.485 494.75 68.192L491 67.881V71.942ZM524 72.002V76.002H528H532V72.002V68.002H528H524V72.002ZM449 81.002C449 84.907 449.083 85.002 452.5 85.002C455.917 85.002 456 84.907 456 81.002C456 77.097 455.917 77.002 452.5 77.002C449.083 77.002 449 77.097 449 81.002ZM363.358 91.149C363.711 94.529 364 98.354 364 99.649C364 101.728 364.466 102.002 368 102.002H372V106.002V110.002H376H380V102.002V94.002H376H372V89.502V85.002H367.358H362.715L363.358 91.149ZM381 89.002C381 92.907 381.083 93.002 384.5 93.002C387.917 93.002 388 92.907 388 89.002C388 85.097 387.917 85.002 384.5 85.002C381.083 85.002 381 85.097 381 89.002ZM508 106.002V110.002H516H524V106.002V102.002H516H508V106.002ZM356.75 110.708C357.988 110.946 360.012 110.946 361.25 110.708C362.488 110.469 361.475 110.274 359 110.274C356.525 110.274 355.512 110.469 356.75 110.708ZM415 123.002V127.002H419H423V123.002V119.002H419H415V123.002ZM448 123.002V127.002H452H456V123.002V119.002H452H448V123.002ZM372 140.002V144.002H380.5H389V140.002V136.002H380.5H372V140.002ZM533 140.002V144.002H537H541V140.002V136.002H537H533V140.002ZM507.714 161.621C507.321 162.014 507 163.835 507 165.669C507 168.959 507.059 169.002 511.56 169.002H516.121L515.81 165.252C515.521 161.751 515.265 161.482 511.964 161.204C510.02 161.041 508.107 161.228 507.714 161.621ZM550 164.962V169.002H558.56H567.121L566.81 165.252L566.5 161.502L558.25 161.212L550 160.921V164.962ZM364 174.002V178.002H359.5H355V186.502V195.002H363.5H372V190.502V186.002H376C379.228 186.002 380 185.644 380 184.149C380 183.129 380.289 179.529 380.642 176.149L381.285 170.002H372.642H364V174.002ZM516 174.002V178.002H520H524V174.002V170.002H520H516V174.002ZM381 208.002V212.002H385H389V208.002V204.002H385H381V208.002ZM372 216.002V220.002H376H380V216.002V212.002H376H372V216.002ZM355 225.002V229.002H350.5H346V233.002V237.002H359H372V229.002V221.002H363.5H355V225.002ZM432 225.002C432 228.907 432.083 229.002 435.5 229.002C438.917 229.002 439 228.907 439 225.002C439 221.097 438.917 221.002 435.5 221.002C432.083 221.002 432 221.097 432 225.002ZM499 233.002V237.002H503H507V233.002V229.002H503H499V233.002ZM389 242.002V246.002H393H397V242.002V238.002H393H389V242.002ZM423 250.002V254.002H427H431V250.002V246.002H427H423V250.002ZM355 266.945C355 270.762 355.119 270.9 358.75 271.291C360.813 271.514 358.788 271.486 354.25 271.231L346 270.765V279.384V288.002H354.355H362.711L363.328 281.389C363.668 277.752 363.669 272.127 363.33 268.889L362.715 263.002H358.858C355.033 263.002 355 263.036 355 266.945ZM384.75 271.73C381.254 272.096 381 272.346 381 275.42V278.717L387.147 279.36C397.377 280.429 397 280.576 397 275.502V271.002L392.75 271.17C390.413 271.263 386.813 271.515 384.75 271.73ZM440 275.002V279.002H444H448V275.002V271.002H444H440V275.002ZM491 284.002C491 287.907 491.083 288.002 494.5 288.002C497.917 288.002 498 287.907 498 284.002C498 280.097 497.917 280.002 494.5 280.002C491.083 280.002 491 280.097 491 284.002ZM549 284.002V288.002H553.5H558V284.002V280.002H553.5H549V284.002ZM415 301.002C415 304.907 415.083 305.002 418.5 305.002C421.917 305.002 422 304.907 422 301.002C422 297.097 421.917 297.002 418.5 297.002C415.083 297.002 415 297.097 415 301.002ZM355 313.502V322.002H359H363V326.502V331.002H367.5H372V326.002V321.002H376C379.228 321.002 380 320.644 380 319.149C380 318.129 380.289 314.529 380.642 311.149L381.285 305.002H376.642H372V309.502V314.002H367.5H363V309.502V305.002H359H355V313.502ZM398 309.002V313.002H402H406V309.002V305.002H402H398V309.002ZM440 309.002V313.002H444H448V309.002V305.002H444H440V309.002ZM499 322.002V330.002H503H507V322.002V314.002H503H499V322.002ZM448.398 339.407C448.102 340.179 448.044 342.317 448.27 344.157C448.645 347.218 448.694 347.146 448.84 343.312C448.995 339.242 449.107 339.112 452.75 338.73L456.5 338.338L452.719 338.17C450.27 338.061 448.747 338.497 448.398 339.407ZM372 347.502V356.002H375.943C379.866 356.002 379.886 356.023 380.193 360.252L380.5 364.502L388.75 364.792L397 365.083V369.042V373.002H405.46H413.919L414.21 381.252L414.5 389.502L435.25 389.772L456 390.043V394.022V398.002H460.5H465V385.502V373.002L452.25 372.827C445.238 372.731 441.413 372.48 443.75 372.27C447.978 371.889 448 371.866 448 367.887V363.887L443.75 364.195C439.655 364.491 439.489 364.634 439.198 368.119C438.9 371.679 438.814 371.746 433.698 372.36C430.839 372.704 425.238 372.989 421.25 372.993L414 373.002V364.502V356.002H406.09H398.18L397.471 347.502L396.763 339.002H392.882C389.02 339.002 389 339.022 389 343.002V347.002H384.5H380V343.002V339.002H376H372V347.502ZM581.25 372.708C580.013 372.946 577.987 372.946 576.75 372.708C575.513 372.469 576.525 372.274 579 372.274C581.475 372.274 582.487 372.469 581.25 372.708ZM547.762 381.689C546.806 381.939 545.006 381.948 543.762 381.709C542.518 381.47 543.3 381.265 545.5 381.254C547.7 381.243 548.718 381.439 547.762 381.689ZM52.75 541.708C53.987 541.946 56.013 541.946 57.25 541.708C58.487 541.469 57.475 541.274 55 541.274C52.525 541.274 51.513 541.469 52.75 541.708ZM447.998 545.752L448 550.002H456.5H465V546.075V542.149L456.498 541.825L447.995 541.502L447.998 545.752Z" fill="#433C39"/>
<path fill-rule="evenodd" clip-rule="evenodd" d="M516 3.94495C516 7.86795 516.021 7.88795 520.25 8.19495L524.5 8.50195L524.774 25.252L525.048 42.002H531.377C534.859 42.002 540.473 42.291 543.853 42.644L550 43.287V51.144V59.002H558.5H567V55.002C567 51.012 566.99 51.002 563.057 51.002C559.134 51.002 559.114 50.981 558.807 46.752L558.5 42.502L550.274 42.212L542.048 41.922L541.774 25.212L541.5 8.50195L537.25 8.19495C533.021 7.88795 533 7.86795 533 3.94495V0.00195312H524.5H516V3.94495ZM422.398 26.407C422.102 27.179 422.044 29.317 422.27 31.157C422.645 34.216 422.694 34.143 422.84 30.309C422.999 26.134 423.017 26.115 427.25 25.734L431.5 25.351L427.219 25.177C424.337 25.059 422.761 25.461 422.398 26.407ZM575 63.36V68.002H579.5H584V98.002V128.002H579.5C575.031 128.002 575 128.026 575 131.472V134.942L587.75 135.222L600.5 135.502L600.789 144.252L601.078 153.002H605.039C608.994 153.002 609 153.009 609 157.002V161.002H605H601V165.002V169.002H605H609V182.002V195.002H596.5H584V199.002V203.002H588H592V215.502V228.002H596.382H600.764L600.837 254.002L600.909 280.002H596.455H592V297.002V314.002H583.5H575V322.502V331.002H566.44H557.879L558.19 334.752C558.481 338.27 558.723 338.521 562.113 338.804L565.726 339.106L566.363 345.201C566.713 348.553 567 354.128 567 357.591V363.887L562.75 364.195C558.521 364.501 558.499 364.523 558.193 368.752C557.886 372.981 557.866 373.002 553.943 373.002C550.01 373.002 550 372.992 550 369.002C550 365.468 549.726 365.002 547.647 365.002C546.352 365.002 542.527 364.713 539.147 364.36L533 363.717V372.36V381.002H524.5H516V377.002V373.002H507.5H499V402.502V432.002H495H491V445.002V458.002H495H499V504.002V550.002H503.5H508V554.502V559.002H503.5H499V562.857V566.713L492.25 567.35C488.538 567.701 376.262 567.991 242.75 567.995L0 568.002V572.002C0 575.992 0.00999999 576.002 3.943 576.002C7.84 576.002 7.889 576.049 8.193 580.091L8.5 584.18L258 584.135C395.225 584.111 509.413 584.071 511.75 584.046L516 584.002V580.002V576.002H520.5H525V563.002V550.002H520.652H516.305L515.649 537.742C515.289 530.999 515.245 504.336 515.551 478.492C515.858 452.647 516.084 423.964 516.054 414.752L516 398.002H532.443H548.885L549.193 393.752L549.5 389.502L557.5 389.475C561.9 389.461 567.638 389.348 570.25 389.225C574.954 389.004 575 388.968 575 385.559C575 382.224 575.133 382.107 579.25 381.809L583.5 381.502L583.774 364.752L584.048 348.002H588.024H592V343.502V339.002H595.943C599.866 339.002 599.886 338.981 600.193 334.752C600.499 330.51 600.509 330.501 604.822 330.191L609.144 329.88L608.979 325.691C608.889 323.387 608.856 315.99 608.907 309.252L609 297.002H613.368H617.735L617.875 263.002L618.014 229.002H613.507H609V224.502V220.002H613H617V216.002V212.002H621.435H625.871V182.502V153.002H622.054H618.237L617.537 144.599L616.837 136.196L608.932 135.496L601.027 134.796L600.763 101.649L600.5 68.502L596.25 68.195C592.021 67.888 592 67.868 592 63.945C592 60.471 591.72 60.002 589.647 60.002C588.352 60.002 584.527 59.713 581.147 59.36L575 58.7169V63.36ZM363.358 91.149C363.711 94.529 364 98.354 364 99.649C364 101.728 364.466 102.002 368 102.002H372V106.002V110.002H376H380V102.002V94.002H376H372V89.502V85.002H367.358H362.715L363.358 91.149ZM356.75 110.708C357.988 110.946 360.012 110.946 361.25 110.708C362.488 110.469 361.475 110.274 359 110.274C356.525 110.274 355.512 110.469 356.75 110.708ZM533 140.002V144.002H537H541V140.002V136.002H537H533V140.002ZM372 174.002V178.002H376H380V174.002V170.002H376H372V174.002ZM355 187.002V195.002H363.5H372V187.002V179.002H363.5H355V187.002ZM364 225.002V229.002H368H372V225.002V221.002H368H364V225.002ZM346 233.002V237.002H354.5H363V233.002V229.002H354.5H346V233.002ZM346 280.002V288.002H350.5H355V284.002V280.002H359H363V276.002V272.002H354.5H346V280.002ZM389 275.502C389 278.919 389.095 279.002 393 279.002C396.905 279.002 397 278.919 397 275.502C397 272.085 396.905 272.002 393 272.002C389.095 272.002 389 272.085 389 275.502ZM372 309.502V314.002H363.5H355V318.002V322.002H359H363V326.502V331.002H367.5H372V326.002V321.002H376H380V313.002V305.002H376H372V309.502ZM372 347.502V356.002H375.943C379.866 356.002 379.886 356.023 380.193 360.252L380.5 364.502L388.75 364.792L397 365.083V369.042V373.002H405.46H413.919L414.21 381.252L414.5 389.502L435.25 389.772L456 390.043V394.022V398.002H460.5H465V390.002V382.002H460.5H456V377.502V373.002H435H414V364.502V356.002H405.5H397V347.502V339.002H393H389V343.502V348.002H384.5H380V343.502V339.002H376H372V347.502ZM581.25 372.708C580.013 372.946 577.987 372.946 576.75 372.708C575.513 372.469 576.525 372.274 579 372.274C581.475 372.274 582.487 372.469 581.25 372.708ZM547.762 381.689C546.806 381.939 545.006 381.948 543.762 381.709C542.518 381.47 543.3 381.265 545.5 381.254C547.7 381.243 548.718 381.439 547.762 381.689ZM563.28 381.733C560.959 381.942 556.909 381.945 554.28 381.738C551.651 381.532 553.55 381.36 558.5 381.357C563.45 381.354 565.601 381.523 563.28 381.733ZM52.75 541.708C53.987 541.946 56.013 541.946 57.25 541.708C58.487 541.469 57.475 541.274 55 541.274C52.525 541.274 51.513 541.469 52.75 541.708ZM448.851 545.752L449.201 550.002H457.101H465V546.075V542.149L456.75 541.825L448.5 541.502L448.851 545.752Z" fill="#C0B39A"/>
<path fill-rule="evenodd" clip-rule="evenodd" d="M516 3.94495C516 7.86795 516.021 7.88795 520.25 8.19495L524.5 8.50195L524.774 25.252L525.048 42.002H531.377C534.859 42.002 540.473 42.291 543.853 42.644L550 43.287V51.144V59.002H558.5H567V55.002C567 51.012 566.99 51.002 563.057 51.002C559.134 51.002 559.114 50.981 558.807 46.752L558.5 42.502L550.274 42.212L542.048 41.922L541.774 25.212L541.5 8.50195L537.25 8.19495C533.021 7.88795 533 7.86795 533 3.94495V0.00195312H524.5H516V3.94495ZM575 63.36V68.002H579.5H584V98.002V128.002H579.5C575.031 128.002 575 128.026 575 131.472V134.942L587.75 135.222L600.5 135.502L600.789 144.252L601.078 153.002H605.039C608.994 153.002 609 153.009 609 157.002V161.002H605H601V165.002V169.002H605H609V182.002V195.002H596.5H584V199.002V203.002H588H592V215.502V228.002H596.382H600.764L600.837 254.002L600.909 280.002H596.455H592V297.002V314.002H583.5H575V322.502V331.002H566.44H557.879L558.19 334.752C558.481 338.27 558.723 338.521 562.113 338.804L565.726 339.106L566.363 345.201C566.713 348.553 567 354.128 567 357.591V363.887L562.75 364.195C558.521 364.501 558.499 364.523 558.193 368.752C557.886 372.981 557.866 373.002 553.943 373.002C550.01 373.002 550 372.992 550 369.002C550 365.468 549.726 365.002 547.647 365.002C546.352 365.002 542.527 364.713 539.147 364.36L533 363.717V372.36V381.002H524.5H516V377.002V373.002H507.5H499V402.502V432.002H495H491V445.002V458.002H495H499V504.002V550.002H503.5H508V554.502V559.002H503.5H499V562.857V566.713L492.25 567.35C488.538 567.701 376.262 567.991 242.75 567.995L0 568.002V572.002C0 575.992 0.00999999 576.002 3.943 576.002C7.84 576.002 7.889 576.049 8.193 580.091L8.5 584.18L258 584.135C395.225 584.111 509.413 584.071 511.75 584.046L516 584.002V580.002V576.002H520.5H525V563.002V550.002H520.652H516.305L515.649 537.742C515.289 530.999 515.245 504.336 515.551 478.492C515.858 452.647 516.084 423.964 516.054 414.752L516 398.002H532.443H548.885L549.193 393.752L549.5 389.502L557.5 389.475C561.9 389.461 567.638 389.348 570.25 389.225C574.954 389.004 575 388.968 575 385.559C575 382.224 575.133 382.107 579.25 381.809L583.5 381.502L583.774 364.752L584.048 348.002H588.024H592V343.502V339.002H595.943C599.866 339.002 599.886 338.981 600.193 334.752C600.499 330.51 600.509 330.501 604.822 330.191L609.144 329.88L608.979 325.691C608.889 323.387 608.856 315.99 608.907 309.252L609 297.002H613.368H617.735L617.875 263.002L618.014 229.002H613.507H609V224.502V220.002H613H617V216.002V212.002H621.435H625.871V182.502V153.002H622.054H618.237L617.537 144.599L616.837 136.196L608.932 135.496L601.027 134.796L600.763 101.649L600.5 68.502L596.25 68.195C592.021 67.888 592 67.868 592 63.945C592 60.471 591.72 60.002 589.647 60.002C588.352 60.002 584.527 59.713 581.147 59.36L575 58.7169V63.36ZM363.358 91.149C363.711 94.529 364 98.354 364 99.649C364 101.728 364.466 102.002 368 102.002H372V106.002V110.002H376H380V102.002V94.002H376H372V89.502V85.002H367.358H362.715L363.358 91.149ZM533 140.002V144.002H537H541V140.002V136.002H537H533V140.002ZM372 174.002V178.002H376H380V174.002V170.002H376H372V174.002ZM355 187.002V195.002H363.5H372V187.002V179.002H363.5H355V187.002ZM364 225.002V229.002H368H372V225.002V221.002H368H364V225.002ZM346 233.002V237.002H354.5H363V233.002V229.002H354.5H346V233.002ZM346 280.002V288.002H350.5H355V284.002V280.002H359H363V276.002V272.002H354.5H346V280.002ZM389 275.502C389 278.919 389.095 279.002 393 279.002C396.905 279.002 397 278.919 397 275.502C397 272.085 396.905 272.002 393 272.002C389.095 272.002 389 272.085 389 275.502ZM372 309.502V314.002H363.5H355V318.002V322.002H359H363V326.502V331.002H367.5H372V326.002V321.002H376H380V313.002V305.002H376H372V309.502ZM372 347.502V356.002H375.943C379.866 356.002 379.886 356.023 380.193 360.252L380.5 364.502L388.75 364.792L397 365.083V369.042V373.002H405.46H413.919L414.21 381.252L414.5 389.502L435.25 389.772L456 390.043V394.022V398.002H460.5H465V390.002V382.002H460.5H456V377.502V373.002H435H414V364.502V356.002H405.5H397V347.502V339.002H393H389V343.502V348.002H384.5H380V343.502V339.002H376H372V347.502ZM581.25 372.708C580.013 372.946 577.987 372.946 576.75 372.708C575.513 372.469 576.525 372.274 579 372.274C581.475 372.274 582.487 372.469 581.25 372.708ZM547.762 381.689C546.806 381.939 545.006 381.948 543.762 381.709C542.518 381.47 543.3 381.265 545.5 381.254C547.7 381.243 548.718 381.439 547.762 381.689ZM563.28 381.733C560.959 381.942 556.909 381.945 554.28 381.738C551.651 381.532 553.55 381.36 558.5 381.357C563.45 381.354 565.601 381.523 563.28 381.733ZM449 546.002V550.002H457H465V546.002V542.002H457H449V546.002Z" fill="black"/>
</svg>
